<?xml version="1.0" encoding="utf-8"?><svg fill="none" viewBox="0 0 500 500" xmlns="http://www.w3.org/2000/svg"><defs /><g transform="matrix(1,0,0,1,53.398,57.744)" id="Background Complete Outlines"><g><g transform="translate(61.097,100.757)"><g id="Group 4" transform="rotate(0)"><animateTransform repeatCount="indefinite" type="rotate" attributeName="transform" dur="7.24s" begin="0s" calcMode="spline" values="0; -50; -100; -150; -200; -250; -300; -350" keyTimes="0; 0.144; 0.276; 0.409; 0.552; 0.691; 0.84; 1" keySplines="0 0 1 1; 0 0 1 1; 0 0 1 1; 0 0 1 1; 0 0 1 1; 0 0 1 1; 0 0 1 1" fill="freeze" /><path fill="#fba425" fill-opacity="1" d="M9.37,-13.661C1.621,-18.507,-8.591,-16.154,-13.438,-8.403C-18.284,-0.654,-15.929,9.558,-8.18,14.404C-0.429,19.251,9.782,16.897,14.628,9.147C19.474,1.396,17.121,-8.814,9.37,-13.661ZM27.768,-25.968C30.096,-23.481,32.048,-20.721,33.603,-17.777L42.927,-17.812L46.392,-2.779L37.994,1.272C37.885,4.6,37.339,7.936,36.334,11.193L42.951,17.759L34.769,30.839L25.97,27.766C23.483,30.096,20.721,32.047,17.777,33.601L17.812,42.926L2.78,46.392L-1.272,37.993C-4.599,37.884,-7.935,37.337,-11.192,36.331L-17.757,42.948L-30.84,34.769L-27.765,25.968C-30.095,23.482,-32.046,20.721,-33.6,17.776L-42.926,17.811L-46.392,2.777L-37.991,-1.273C-37.882,-4.6,-37.335,-7.936,-36.331,-11.193L-42.946,-17.759L-34.767,-30.84L-25.967,-27.766C-23.481,-30.096,-20.718,-32.048,-17.774,-33.601L-17.81,-42.927L-2.777,-46.392L1.274,-37.993C4.601,-37.884,7.937,-37.337,11.195,-36.332L17.76,-42.948L30.84,-34.768L27.768,-25.968Z" /></g></g></g><g><g transform="translate(82.574,25.935)"><g id="Group 3" transform="rotate(0)"><animateTransform repeatCount="indefinite" type="rotate" attributeName="transform" dur="7.24s" begin="0s" calcMode="spline" values="0; 50; 100; 150; 200; 250; 300; 350" keyTimes="0; 0.144; 0.276; 0.409; 0.552; 0.691; 0.84; 1" keySplines="0 0 1 1; 0 0 1 1; 0 0 1 1; 0 0 1 1; 0 0 1 1; 0 0 1 1; 0 0 1 1" fill="freeze" /><path fill="#263238" fill-opacity="1" d="M5.188,-7.563C0.898,-10.246,-4.757,-8.943,-7.44,-4.652C-10.124,-0.361,-8.82,5.292,-4.529,7.975C-0.238,10.658,5.415,9.355,8.098,5.064C10.781,0.773,9.479,-4.879,5.188,-7.563ZM15.373,-14.377C16.662,-13,17.742,-11.471,18.604,-9.842L23.766,-9.861L25.684,-1.538L21.035,0.705C20.975,2.547,20.672,4.394,20.115,6.197L23.779,9.833L19.249,17.074L14.377,15.373C13,16.663,11.472,17.743,9.841,18.604L9.861,23.767L1.539,25.685L-0.705,21.035C-2.547,20.975,-4.394,20.671,-6.197,20.115L-9.832,23.779L-17.075,19.249L-15.373,14.377C-16.663,13.001,-17.743,11.472,-18.603,9.842L-23.767,9.861L-25.685,1.538L-21.034,-0.705C-20.974,-2.546,-20.671,-4.393,-20.115,-6.197L-23.778,-9.832L-19.249,-17.074L-14.377,-15.372C-13,-16.662,-11.47,-17.743,-9.84,-18.603L-9.861,-23.766L-1.539,-25.685L0.705,-21.034C2.547,-20.974,4.394,-20.671,6.197,-20.115L9.832,-23.778L17.074,-19.249L15.373,-14.377Z" /></g></g></g></g><g id="goal"><g transform="translate(356.822,222.391)"><g transform="rotate(0)"><animateTransform repeatCount="indefinite" type="rotate" attributeName="transform" dur="7.12s" begin="0s" calcMode="spline" values="0; -360" keyTimes="0; 1" keySplines="0 0 1 1" fill="freeze" /><g transform="scale(1,1) translate(-332.397,-150.552)"><g id="Group 13" transform="matrix(1,0,0,1,350.382,189.607)"><path fill="#263238" fill-opacity="1" d="M9.44,0C9.44,5.213,5.212,9.439,0,9.439C-5.213,9.439,-9.44,5.213,-9.44,0C-9.44,-5.213,-5.213,-9.439,0,-9.439C5.212,-9.439,9.44,-5.213,9.44,0Z" /></g><g id="Group 12" transform="matrix(1,0,0,1,322.354,189.607)"><path fill="#263238" fill-opacity="1" d="M10.055,0C10.055,5.553,5.553,10.055,0,10.055C-5.553,10.055,-10.055,5.553,-10.055,0C-10.055,-5.553,-5.553,-10.055,0,-10.055C5.553,-10.055,10.055,-5.553,10.055,0Z" /></g><g id="Group 11" transform="matrix(1,0,0,1,300.81,171.818)"><path fill="#263238" fill-opacity="1" d="M10.674,0C10.674,5.895,5.895,10.673,0,10.673C-5.894,10.673,-10.674,5.895,-10.674,0C-10.674,-5.895,-5.894,-10.673,0,-10.673C5.895,-10.673,10.674,-5.895,10.674,0Z" /></g><g id="Group 10" transform="matrix(1,0,0,1,296.437,144.467)"><path fill="#263238" fill-opacity="1" d="M11.148,-0.001C11.148,6.156,6.156,11.147,0,11.147C-6.157,11.147,-11.148,6.156,-11.148,-0.001C-11.148,-6.157,-6.157,-11.147,0,-11.147C6.156,-11.147,11.148,-6.157,11.148,-0.001Z" /></g><g id="Group 9" transform="matrix(1,0,0,1,310.089,120.523)"><path fill="#263238" fill-opacity="1" d="M11.521,0C11.521,6.363,6.363,11.521,0,11.521C-6.363,11.521,-11.521,6.363,-11.521,0C-11.521,-6.363,-6.363,-11.521,0,-11.521C6.363,-11.521,11.521,-6.363,11.521,0Z" /></g><g id="Group 8" transform="matrix(1,0,0,1,336.326,111.062)"><path fill="#263238" fill-opacity="1" d="M12.556,0C12.556,6.935,6.935,12.556,0,12.556C-6.934,12.556,-12.556,6.935,-12.556,0C-12.556,-6.934,-6.934,-12.556,0,-12.556C6.935,-12.556,12.556,-6.934,12.556,0Z" /></g><g id="Group 7" transform="matrix(1,0,0,1,371.207,171.597)"><path fill="#263238" fill-opacity="1" d="M9.117,0C9.117,5.035,5.035,9.117,0,9.117C-5.035,9.117,-9.117,5.035,-9.117,0C-9.117,-5.035,-5.035,-9.117,0,-9.117C5.035,-9.117,9.117,-5.035,9.117,0Z" /></g><g id="Group 6" transform="matrix(1,0,0,1,376.086,144.161)"><path fill="#263238" fill-opacity="1" d="M8.462,0C8.462,4.673,4.674,8.462,0,8.462C-4.673,8.462,-8.462,4.673,-8.462,0C-8.462,-4.673,-4.673,-8.462,0,-8.462C4.674,-8.462,8.462,-4.673,8.462,0Z" /></g><g id="Group 5" transform="matrix(1,0,0,1,362.013,120.207)"><path fill="#263238" fill-opacity="1" d="M7.73,0C7.73,4.269,4.27,7.73,0.001,7.73C-4.269,7.73,-7.73,4.269,-7.73,0C-7.73,-4.27,-4.269,-7.73,0.001,-7.73C4.27,-7.73,7.73,-4.27,7.73,0Z" /></g></g></g></g></g><g transform="matrix(1,0,0,1,149.895,40.49)" id="Screen Outlines"><g id="Group 29" transform="matrix(1,0,0,1,100.104,209.511)"><path fill="#ffffff" fill-opacity="1" d="M76.563,-208.326L47.162,-208.462C43.219,-208.479,40.007,-205.152,39.992,-201.031L39.967,-195.697C39.952,-191.575,36.74,-188.248,32.797,-188.266L-24.512,-188.533C-28.455,-188.55,-31.637,-191.906,-31.62,-196.028L-31.597,-201.361C-31.58,-205.483,-34.763,-208.839,-38.706,-208.857L-49.046,-208.906L-74.779,-209.024C-87.559,-209.082,-97.966,-198.768,-98.02,-185.988L-99.588,185.091C-99.643,197.865,-89.334,208.265,-76.561,208.324L74.781,209.023C87.56,209.082,97.966,198.767,98.021,185.986L99.59,-185.093C99.643,-197.866,89.335,-208.266,76.563,-208.326Z" /></g><g id="Group 28" transform="matrix(1,0,0,1,100.038,209.525)"><path fill="#263238" fill-opacity="1" d="M76.629,-208.339C76.629,-208.339,76.895,-208.333,77.421,-208.309C77.943,-208.256,78.739,-208.313,79.764,-208.114C81.813,-207.862,84.928,-207.182,88.425,-205.077C90.192,-204.071,91.984,-202.626,93.68,-200.779C95.369,-198.93,96.937,-196.621,98.053,-193.859C99.185,-191.105,99.789,-187.893,99.743,-184.466C99.733,-181.05,99.721,-177.413,99.709,-173.561C99.598,-142.735,99.438,-98.137,99.239,-43.029C99.023,12.081,98.764,77.701,98.477,150.563C98.44,159.671,98.402,168.892,98.364,178.22C98.356,180.552,98.346,182.89,98.336,185.235C98.301,187.583,98.14,189.992,97.424,192.272C96.749,194.553,95.796,196.775,94.45,198.764C93.11,200.75,91.483,202.545,89.622,204.077C85.858,207.073,81.15,208.974,76.277,209.195C75.057,209.275,73.852,209.259,72.646,209.251L69.02,209.234C66.6,209.223,64.173,209.213,61.74,209.201C52.011,209.157,42.187,209.113,32.275,209.068C12.453,208.978,-7.719,208.887,-28.191,208.793C-38.428,208.746,-48.739,208.698,-59.119,208.65C-64.308,208.627,-69.515,208.603,-74.738,208.58C-79.977,208.825,-85.39,207.424,-89.751,204.37C-94.131,201.339,-97.354,196.766,-98.846,191.702C-99.649,189.177,-99.788,186.489,-99.778,183.89C-99.766,181.286,-99.755,178.685,-99.745,176.09C-99.7,165.707,-99.656,155.392,-99.613,145.153C-99.525,124.675,-99.438,104.497,-99.353,84.67C-99.18,45.015,-99.014,6.765,-98.854,-29.671C-98.692,-66.108,-98.537,-100.732,-98.393,-133.136C-98.32,-149.338,-98.248,-164.985,-98.18,-180.026C-98.171,-181.905,-98.163,-183.776,-98.154,-185.637C-98.138,-186.569,-98.067,-187.508,-98.013,-188.438C-97.847,-189.356,-97.772,-190.29,-97.53,-191.187C-96.671,-194.799,-94.985,-198.175,-92.636,-200.951C-90.269,-203.711,-87.305,-205.894,-84.048,-207.317C-80.792,-208.771,-77.223,-209.274,-73.775,-209.218C-66.886,-209.183,-60.162,-209.149,-53.608,-209.116C-50.331,-209.099,-47.097,-209.083,-43.906,-209.066C-42.311,-209.058,-40.726,-209.05,-39.153,-209.042C-37.566,-209.113,-35.925,-208.674,-34.628,-207.759C-33.331,-206.844,-32.336,-205.529,-31.828,-204.051C-31.244,-202.572,-31.39,-200.977,-31.378,-199.494C-31.382,-198.741,-31.386,-197.99,-31.389,-197.242C-31.39,-196.492,-31.42,-195.748,-31.326,-195.031C-31.146,-193.591,-30.543,-192.21,-29.604,-191.131C-28.683,-190.037,-27.419,-189.252,-26.057,-188.91C-25.371,-188.735,-24.683,-188.684,-23.964,-188.695C-23.251,-188.692,-22.539,-188.688,-21.832,-188.684C-19.002,-188.669,-16.218,-188.654,-13.482,-188.64C-2.537,-188.582,7.649,-188.527,17.025,-188.478C21.712,-188.452,26.197,-188.428,30.475,-188.404C31.537,-188.419,32.613,-188.347,33.628,-188.432C34.65,-188.545,35.626,-188.893,36.476,-189.422C38.185,-190.476,39.349,-192.232,39.748,-194.087C39.964,-195.016,39.931,-195.963,39.941,-196.901C39.945,-197.837,39.95,-198.759,39.956,-199.668C39.971,-200.572,39.919,-201.479,40.087,-202.362C40.241,-203.24,40.542,-204.077,40.965,-204.83C41.803,-206.345,43.158,-207.487,44.661,-208.071C46.178,-208.723,47.789,-208.518,49.249,-208.543C55.18,-208.506,60.198,-208.474,64.256,-208.448C68.31,-208.419,71.401,-208.396,73.484,-208.38C75.564,-208.362,76.629,-208.339,76.629,-208.339C76.629,-208.339,75.564,-208.326,73.484,-208.327C71.401,-208.331,68.31,-208.336,64.256,-208.343C60.198,-208.356,55.179,-208.37,49.249,-208.388C47.775,-208.36,46.193,-208.556,44.722,-207.916C43.257,-207.341,41.937,-206.224,41.122,-204.742C40.711,-204.006,40.418,-203.188,40.27,-202.331C40.107,-201.475,40.158,-200.578,40.146,-199.668C40.143,-198.758,40.141,-197.836,40.137,-196.9C40.13,-195.971,40.166,-195.001,39.945,-194.044C39.54,-192.138,38.349,-190.33,36.589,-189.239C35.714,-188.693,34.706,-188.331,33.652,-188.214C32.587,-188.124,31.547,-188.195,30.473,-188.179C26.196,-188.195,21.711,-188.212,17.024,-188.23C7.648,-188.266,-2.538,-188.306,-13.483,-188.349C-16.219,-188.36,-19.003,-188.371,-21.833,-188.382C-22.541,-188.385,-23.251,-188.388,-23.965,-188.391C-24.672,-188.379,-25.424,-188.431,-26.132,-188.612C-27.557,-188.969,-28.879,-189.788,-29.84,-190.928C-30.821,-192.052,-31.451,-193.491,-31.64,-194.991C-31.739,-195.748,-31.708,-196.5,-31.708,-197.244C-31.705,-197.991,-31.704,-198.742,-31.701,-199.495C-31.714,-201.003,-31.574,-202.533,-32.135,-203.943C-32.623,-205.359,-33.579,-206.614,-34.817,-207.487C-36.068,-208.359,-37.594,-208.775,-39.154,-208.706C-40.728,-208.712,-42.312,-208.718,-43.908,-208.725C-47.099,-208.738,-50.332,-208.752,-53.61,-208.766C-60.163,-208.793,-66.888,-208.821,-73.776,-208.85C-77.201,-208.901,-80.69,-208.404,-83.898,-206.971C-87.101,-205.568,-90.015,-203.418,-92.341,-200.702C-94.65,-197.97,-96.304,-194.649,-97.146,-191.098C-97.384,-190.216,-97.455,-189.297,-97.62,-188.395C-97.671,-187.478,-97.74,-186.564,-97.756,-185.635C-97.764,-183.775,-97.771,-181.904,-97.778,-180.024C-97.837,-164.983,-97.898,-149.336,-97.961,-133.134C-98.091,-100.73,-98.229,-66.106,-98.375,-29.669C-98.524,6.768,-98.681,45.016,-98.843,84.671C-98.925,104.498,-99.009,124.678,-99.095,145.156C-99.138,155.395,-99.181,165.71,-99.225,176.093C-99.235,178.688,-99.246,181.288,-99.257,183.892C-99.266,186.486,-99.132,189.077,-98.346,191.557C-96.887,196.508,-93.736,200.978,-89.453,203.943C-85.17,206.928,-79.938,208.299,-74.736,208.059C-69.513,208.084,-64.306,208.107,-59.116,208.132C-48.736,208.18,-38.425,208.227,-28.189,208.275C-7.716,208.371,12.456,208.466,32.278,208.558C42.19,208.605,52.014,208.651,61.743,208.697C64.175,208.709,66.602,208.72,69.023,208.731L72.649,208.749C73.857,208.758,75.065,208.773,76.249,208.694C81.019,208.481,85.624,206.62,89.31,203.689C91.131,202.189,92.725,200.434,94.037,198.49C95.356,196.544,96.288,194.368,96.948,192.137C97.651,189.898,97.807,187.563,97.844,185.233C97.854,182.889,97.864,180.55,97.874,178.218C97.915,168.89,97.957,159.669,97.997,150.561C98.326,77.699,98.621,12.08,98.87,-43.031C99.138,-98.138,99.356,-142.736,99.506,-173.562C99.526,-177.414,99.546,-181.051,99.564,-184.467C99.618,-187.877,99.026,-191.06,97.909,-193.8C96.808,-196.547,95.258,-198.847,93.584,-200.692C91.904,-202.533,90.124,-203.979,88.37,-204.987C84.898,-207.097,81.799,-207.793,79.757,-208.062C78.735,-208.269,77.941,-208.22,77.42,-208.282C76.895,-208.316,76.629,-208.339,76.629,-208.339Z" /></g><g><g transform="translate(102.34,154.592)"><g id="Group 21" transform="rotate(0)"><animateTransform repeatCount="indefinite" type="rotate" attributeName="transform" dur="6.2s" begin="1.28s" calcMode="spline" values="0; -80; -121; -189; -244; -244; -341; -399; -461; -521" keyTimes="0; 0.148; 0.265; 0.348; 0.439; 0.555; 0.71; 0.826; 0.91; 1" keySplines="0 0 1 1; 0 0 1 1; 0 0 1 1; 0 0 1 1; 0 0 1 1; 0 0 1 1; 0 0 1 1; 0 0 1 1; 0 0 1 1" fill="freeze" /><path fill="#ff8100" fill-opacity="1" d="M6.065,-8.842C1.049,-11.978,-5.562,-10.456,-8.699,-5.439C-11.836,-0.422,-10.311,6.187,-5.296,9.324C-0.279,12.461,6.331,10.937,9.467,5.921C12.604,0.904,11.082,-5.705,6.065,-8.842ZM17.973,-16.808C19.48,-15.198,20.743,-13.411,21.75,-11.506L27.785,-11.529L30.029,-1.798L24.591,0.824C24.521,2.978,24.168,5.137,23.517,7.245L27.801,11.495L22.504,19.962L16.809,17.973C15.2,19.481,13.412,20.744,11.505,21.749L11.529,27.786L1.799,30.029L-0.825,24.593C-2.978,24.522,-5.137,24.168,-7.246,23.517L-11.495,27.8L-19.963,22.505L-17.973,16.809C-19.481,15.2,-20.744,13.412,-21.749,11.507L-27.787,11.529L-30.029,1.798L-24.592,-0.823C-24.521,-2.977,-24.167,-5.136,-23.518,-7.244L-27.799,-11.494L-22.505,-19.962L-16.809,-17.972C-15.2,-19.48,-13.412,-20.743,-11.506,-21.749L-11.529,-27.785L-1.799,-30.029L0.824,-24.591C2.977,-24.521,5.137,-24.167,7.246,-23.516L11.496,-27.799L19.961,-22.505L17.973,-16.808Z" /></g></g></g><g id="Group 20" transform="matrix(1,0,0,1,102.725,154.833)"><path fill="#ffffff" fill-opacity="1" d="M5.679,-9.083C0.663,-12.219,-5.947,-10.697,-9.084,-5.68C-12.221,-0.663,-10.696,5.946,-5.681,9.083C-0.664,12.22,5.946,10.696,9.082,5.68C12.219,0.663,10.696,-5.946,5.679,-9.083Z" /></g><g id="Group 19" transform="matrix(1,0,0,1,74.391,253.535)"><path fill="#263238" fill-opacity="1" d="M-4.596,0.767L-4.596,-5.644L-3.413,-5.644L-3.413,0.719C-3.413,3.373,-2.167,4.587,0.007,4.587C2.197,4.587,3.445,3.373,3.445,0.719L3.445,-5.644L4.596,-5.644L4.596,0.767C4.596,3.981,2.869,5.644,0.007,5.644C-2.854,5.644,-4.596,3.981,-4.596,0.767Z" /></g><g id="Group 18" transform="matrix(1,0,0,1,86.927,253.487)"><path fill="#263238" fill-opacity="1" d="M3.198,-1.758C3.198,-3.55,2.014,-4.572,-0.224,-4.572L-3.198,-4.572L-3.198,1.023L-0.224,1.023C2.014,1.023,3.198,0.001,3.198,-1.758ZM4.381,-1.758C4.381,0.624,2.654,2.062,-0.192,2.062L-3.198,2.062L-3.198,5.596L-4.381,5.596L-4.381,-5.596L-0.192,-5.596C2.654,-5.596,4.381,-4.157,4.381,-1.758Z" /></g><g id="Group 17" transform="matrix(1,0,0,1,99.137,253.487)"><path fill="#263238" fill-opacity="1" d="M-0.783,4.573C2.191,4.573,4.109,2.685,4.109,0.001C4.109,-2.686,2.191,-4.573,-0.783,-4.573L-4.092,-4.573L-4.092,4.573L-0.783,4.573ZM-5.277,-5.596L-0.721,-5.596C2.861,-5.596,5.277,-3.293,5.277,0.001C5.277,3.293,2.861,5.595,-0.721,5.595L-5.277,5.595L-5.277,-5.596Z" /></g><g id="Group 16" transform="matrix(1,0,0,1,110.809,253.487)"><path fill="#263238" fill-opacity="1" d="M2.678,1.646L-0.008,-4.365L-2.694,1.646L2.678,1.646ZM3.109,2.607L-3.126,2.607L-4.469,5.595L-5.699,5.595L-0.583,-5.596L0.583,-5.596L5.699,5.595L4.452,5.595L3.109,2.607Z" /></g><g id="Group 15" transform="matrix(1,0,0,1,120.564,253.487)"><path fill="#263238" fill-opacity="1" d="M-0.591,-4.573L-4.525,-4.573L-4.525,-5.596L4.525,-5.596L4.525,-4.573L0.592,-4.573L0.592,5.596L-0.591,5.596L-0.591,-4.573Z" /></g><g id="Group 14" transform="matrix(1,0,0,1,130.927,253.487)"><path fill="#263238" fill-opacity="1" d="M3.957,4.573L3.957,5.595L-3.957,5.595L-3.957,-5.596L3.718,-5.596L3.718,-4.573L-2.772,-4.573L-2.772,-0.59L3.015,-0.59L3.015,0.416L-2.772,0.416L-2.772,4.573L3.957,4.573Z" /></g><g id="Group 13" transform="matrix(1,0,0,1,176.385,37.263)"><path fill="#263238" fill-opacity="1" d="M9.053,-0.075C9.054,0.03,5.001,0.15,0.001,0.192C-5,0.233,-9.053,0.181,-9.053,0.075C-9.054,-0.03,-5.003,-0.15,-0.002,-0.191C4.997,-0.233,9.052,-0.181,9.053,-0.075Z" /></g><g id="Group 12" transform="matrix(1,0,0,1,176.424,41.896)"><path fill="#263238" fill-opacity="1" d="M9.053,-0.075C9.054,0.03,5.001,0.15,0.002,0.192C-4.999,0.233,-9.052,0.181,-9.053,0.075C-9.054,-0.03,-5.003,-0.15,-0.002,-0.191C4.998,-0.233,9.052,-0.18,9.053,-0.075Z" /></g><g id="Group 11" transform="matrix(1,0,0,1,176.462,46.529)"><path fill="#263238" fill-opacity="1" d="M9.053,-0.075C9.054,0.03,5.001,0.15,0.002,0.191C-4.999,0.232,-9.052,0.18,-9.053,0.075C-9.054,-0.031,-5.003,-0.15,-0.002,-0.191C4.998,-0.232,9.052,-0.18,9.053,-0.075Z" /></g><g id="Group 10" transform="matrix(1,0,0,1,27.9,44.177)"><path fill="#263238" fill-opacity="1" d="M-7.147,7.565C-7.14,7.558,-7.011,7.55,-6.771,7.54C-6.474,7.53,-6.13,7.519,-5.723,7.505C-4.735,7.482,-3.443,7.451,-1.857,7.413L-1.964,7.522C-1.978,6.665,-1.993,5.729,-2.01,4.718C-2.004,4.197,-2.054,3.706,-2.003,3.105C-1.899,2.504,-1.364,1.974,-0.706,1.913C-0.083,1.9,0.465,1.872,1.141,1.903C1.837,1.988,2.43,2.659,2.409,3.397C2.423,4.704,2.438,6.069,2.454,7.485L2.275,7.309C3.841,7.293,5.471,7.276,7.152,7.259L6.967,7.448C6.95,5.484,6.932,3.452,6.913,1.371C6.909,0.852,6.904,0.336,6.9,-0.177C6.898,-0.654,6.607,-0.973,6.214,-1.329C5.493,-2.04,4.78,-2.741,4.081,-3.43C3.383,-4.119,2.698,-4.796,2.025,-5.46C1.689,-5.791,1.357,-6.12,1.029,-6.445C0.686,-6.775,0.417,-7.116,0.02,-7.197C-0.365,-7.301,-0.79,-7.219,-1.1,-6.984C-1.396,-6.734,-1.709,-6.381,-2.007,-6.091C-2.607,-5.485,-3.192,-4.896,-3.757,-4.326C-4.858,-3.182,-6.004,-2.138,-6.837,-1.15C-7.189,-0.605,-7.057,0.062,-7.083,0.67C-7.084,1.274,-7.086,1.847,-7.087,2.388C-7.094,3.442,-7.099,4.365,-7.104,5.156C-7.111,5.864,-7.118,6.448,-7.124,6.926C-7.13,7.336,-7.138,7.555,-7.147,7.565C-7.156,7.574,-7.168,7.373,-7.182,6.979C-7.195,6.507,-7.21,5.932,-7.23,5.235C-7.247,4.438,-7.27,3.507,-7.294,2.445C-7.303,1.894,-7.315,1.309,-7.326,0.693C-7.331,0.381,-7.334,0.061,-7.339,-0.266C-7.342,-0.612,-7.253,-0.97,-7.07,-1.287C-6.168,-2.393,-5.091,-3.371,-3.982,-4.548C-3.421,-5.123,-2.843,-5.716,-2.247,-6.327C-1.934,-6.634,-1.677,-6.939,-1.305,-7.259C-0.915,-7.559,-0.379,-7.666,0.109,-7.538C0.628,-7.423,0.965,-6.998,1.279,-6.7C1.609,-6.377,1.944,-6.05,2.281,-5.72C2.956,-5.059,3.643,-4.384,4.344,-3.697C5.044,-3.009,5.757,-2.31,6.48,-1.6C6.651,-1.418,6.858,-1.265,7.025,-1.01C7.183,-0.767,7.273,-0.479,7.281,-0.187C7.286,0.328,7.29,0.846,7.294,1.368C7.31,3.449,7.325,5.481,7.34,7.445L7.342,7.632L7.156,7.634C5.475,7.644,3.845,7.655,2.279,7.665L2.1,7.666L2.098,7.488C2.091,6.072,2.083,4.707,2.077,3.399C2.097,2.81,1.64,2.29,1.092,2.215C0.531,2.186,-0.131,2.205,-0.678,2.21C-1.202,2.253,-1.639,2.674,-1.729,3.158C-1.776,3.648,-1.739,4.22,-1.749,4.716C-1.749,5.727,-1.75,6.663,-1.749,7.52L-1.749,7.63L-1.855,7.629C-3.468,7.618,-4.782,7.608,-5.786,7.602C-6.184,7.595,-6.521,7.589,-6.811,7.584C-7.04,7.578,-7.154,7.572,-7.147,7.565Z" /></g><g id="Group 9" transform="matrix(1,0,0,1,106.57,47.789)"><path fill="#263238" fill-opacity="1" d="M34.033,-0.001C34.033,0.143,18.795,0.26,0.003,0.26C-18.797,0.26,-34.033,0.143,-34.033,-0.001C-34.033,-0.145,-18.797,-0.26,0.003,-0.26C18.795,-0.26,34.033,-0.145,34.033,-0.001Z" /></g><g id="Group 8" transform="matrix(1,0,0,1,103.109,347.315)"><path fill="#ffffff" fill-opacity="1" d="M35.728,16.525L-35.728,16.525C-44.855,16.525,-52.252,9.127,-52.252,0.001C-52.252,-9.126,-44.855,-16.525,-35.728,-16.525L35.728,-16.525C44.855,-16.525,52.252,-9.126,52.252,0.001C52.252,9.127,44.855,16.525,35.728,16.525Z" /></g><g id="Group 7" transform="matrix(1,0,0,1,92.632,346.684)"><path fill="#ffffff" fill-opacity="1" d="M-3.157,3.049L-2.56,1.726C-1.92,2.193,-0.966,2.518,-0.054,2.518C0.988,2.518,1.41,2.171,1.41,1.704C1.41,0.283,-3.005,1.259,-3.005,-1.561C-3.005,-2.852,-1.964,-3.927,0.196,-3.927C1.15,-3.927,2.126,-3.699,2.831,-3.254L2.289,-1.92C1.584,-2.321,0.858,-2.516,0.185,-2.516C-0.857,-2.516,-1.259,-2.126,-1.259,-1.648C-1.259,-0.249,3.157,-1.215,3.157,1.574C3.157,2.843,2.105,3.928,-0.065,3.928C-1.269,3.928,-2.484,3.57,-3.157,3.049Z" /></g><g id="Group 6" transform="matrix(1,0,0,1,98.405,346.961)"><path fill="#ffffff" fill-opacity="1" d="M2.23,3.239C1.882,3.489,1.373,3.608,0.852,3.608C-0.526,3.608,-1.329,2.903,-1.329,1.514L-1.329,-0.883L-2.23,-0.883L-2.23,-2.186L-1.329,-2.186L-1.329,-3.607L0.363,-3.607L0.363,-2.186L1.818,-2.186L1.818,-0.883L0.363,-0.883L0.363,1.493C0.363,1.992,0.634,2.262,1.089,2.262C1.339,2.262,1.588,2.187,1.773,2.046L2.23,3.239Z" /></g><g id="Group 5" transform="matrix(1,0,0,1,103.978,347.564)"><path fill="#ffffff" fill-opacity="1" d="M1.08,1.073L1.08,0.477L-0.081,0.477C-0.873,0.477,-1.122,0.769,-1.122,1.16C-1.122,1.584,-0.765,1.865,-0.168,1.865C0.396,1.865,0.885,1.605,1.08,1.073ZM2.772,-0.413L2.772,2.918L1.188,2.918L1.188,2.191C0.874,2.722,0.267,3.005,-0.591,3.005C-1.958,3.005,-2.772,2.245,-2.772,1.236C-2.772,0.206,-2.045,-0.511,-0.266,-0.511L1.08,-0.511C1.08,-1.238,0.645,-1.66,-0.266,-1.66C-0.884,-1.66,-1.524,-1.454,-1.947,-1.118L-2.555,-2.301C-1.914,-2.756,-0.971,-3.006,-0.037,-3.006C1.742,-3.006,2.772,-2.181,2.772,-0.413Z" /></g><g id="Group 4" transform="matrix(1,0,0,1,110.088,347.52)"><path fill="#ffffff" fill-opacity="1" d="M1.812,-2.962L1.812,-1.4C1.671,-1.41,1.562,-1.421,1.432,-1.421C0.499,-1.421,-0.12,-0.911,-0.12,0.206L-0.12,2.962L-1.812,2.962L-1.812,-2.875L-0.196,-2.875L-0.196,-2.105C0.216,-2.669,0.912,-2.962,1.812,-2.962Z" /></g><g id="Group 3" transform="matrix(1,0,0,1,114.647,346.961)"><path fill="#ffffff" fill-opacity="1" d="M2.23,3.239C1.882,3.489,1.372,3.608,0.851,3.608C-0.527,3.608,-1.33,2.903,-1.33,1.514L-1.33,-0.883L-2.23,-0.883L-2.23,-2.186L-1.33,-2.186L-1.33,-3.607L0.363,-3.607L0.363,-2.186L1.817,-2.186L1.817,-0.883L0.363,-0.883L0.363,1.493C0.363,1.992,0.634,2.262,1.089,2.262C1.339,2.262,1.588,2.187,1.773,2.046L2.23,3.239Z" /></g><g opacity="1"><animate repeatCount="indefinite" attributeName="opacity" dur="3.4s" begin="1.36s" calcMode="spline" values="1; 0; 1; 1; 0; 1; 1; 0; 1; 1; 0; 1" keyTimes="0; 0.035; 0.082; 0.259; 0.294; 0.341; 0.659; 0.694; 0.741; 0.918; 0.953; 1" keySplines="0 0 1 1; 0 0 1 1; 0 0 1 1; 0 0 1 1; 0 0 1 1; 0 0 1 1; 0 0 1 1; 0 0 1 1; 0 0 1 1; 0 0 1 1; 0 0 1 1" fill="freeze" /><g transform="translate(32.904,284.937)"><g transform="scale(0,1)"><animateTransform repeatCount="indefinite" type="scale" attributeName="transform" dur="4.36s" begin="0.84s" calcMode="spline" values="0 1; 1 1; 1 1; 0 1; 1 1; 1 1; 0 1; 1 1; 1 1; 1 1; 0 1; 1 1; 1 1; 0 1; 1 1" keyTimes="0; 0.101; 0.147; 0.156; 0.275; 0.358; 0.367; 0.486; 0.615; 0.661; 0.67; 0.789; 0.872; 0.881; 1" keySplines="0 0 1 1; 0 0 1 1; 0 0 1 1; 0 0 1 1; 0 0 1 1; 0 0 1 1; 0 0 1 1; 0 0 1 1; 0 0 1 1; 0 0 1 1; 0 0 1 1; 0 0 1 1; 0 0 1 1; 0 0 1 1" fill="freeze" /><g id="Group 2" transform="translate(69.5,0.5)"><path fill="#263238" fill-opacity="1" d="M68.614,-0.001C68.614,0.143,37.891,0.26,0.003,0.26C-37.899,0.26,-68.614,0.143,-68.614,-0.001C-68.614,-0.145,-37.899,-0.26,0.003,-0.26C37.891,-0.26,68.614,-0.145,68.614,-0.001Z" /></g></g></g></g><g opacity="1"><animate repeatCount="indefinite" attributeName="opacity" dur="2.76s" begin="2s" calcMode="spline" values="1; 0; 1; 0; 1; 0" keyTimes="0; 0.043; 0.42; 0.464; 0.957; 1" keySplines="0 0 1 1; 0 0 1 1; 0 0 1 1; 0 0 1 1; 0 0 1 1" fill="freeze" /><g transform="translate(60.904,293.348)"><g transform="scale(0,1)"><animateTransform repeatCount="indefinite" type="scale" attributeName="transform" dur="4.12s" begin="1.52s" calcMode="spline" values="0 1; 1 1; 1 1; 0 1; 1 1; 1 1; 1 1; 0 1; 1 1; 1 1; 1 1; 1 1; 0 1; 1 1; 1 1" keyTimes="0; 0.107; 0.146; 0.165; 0.272; 0.388; 0.427; 0.447; 0.553; 0.66; 0.748; 0.786; 0.806; 0.913; 1" keySplines="0 0 1 1; 0 0 1 1; 0 0 1 1; 0 0 1 1; 0 0 1 1; 0 0 1 1; 0 0 1 1; 0 0 1 1; 0 0 1 1; 0 0 1 1; 0 0 1 1; 0 0 1 1; 0 0 1 1; 0 0 1 1" fill="freeze" /><g id="Group 1" transform="translate(41.5,0.5)"><path fill="#263238" fill-opacity="1" d="M41.276,0C41.276,0.144,22.795,0.261,0.002,0.261C-22.799,0.261,-41.276,0.144,-41.276,0C-41.276,-0.144,-22.799,-0.261,0.002,-0.261C22.795,-0.261,41.276,-0.144,41.276,0Z" /></g></g></g></g></g><g transform="matrix(1,0,0,1,97.266,113.955)" id="Character Outlines"><g id="Group 115" transform="matrix(1,0,0,1,12.303,356.42)"><path fill="#ff8100" fill-opacity="1" d="M-5.872,-12.133L-11.947,10.331L7.798,12.133L11.947,-9.252L-5.872,-12.133Z" /></g><g id="Group 113" transform="matrix(1,0,0,1,10.387,366.49)"><path fill="#ffffff" fill-opacity="1" d="M-10.032,0.261L9.713,2.063L10.032,0.415L-9.461,-2.062L-10.011,0.037" /></g><g id="Group 112" transform="matrix(1,0,0,1,12.267,357.199)"><path fill="#263238" fill-opacity="1" d="M-2.102,8.552C-2.227,8.522,-1.386,4.668,-0.225,-0.054C0.937,-4.778,1.978,-8.581,2.102,-8.551C2.227,-8.52,1.386,-4.667,0.225,0.057C-0.936,4.779,-1.977,8.582,-2.102,8.552Z" /></g><g id="Group 111" transform="matrix(1,0,0,1,11.558,361.078)"><path fill="#263238" fill-opacity="1" d="M8.025,5.499C7.904,5.493,8.654,3.887,8.07,1.323C7.769,0.073,7.112,-1.381,5.908,-2.586C4.723,-3.798,2.946,-4.644,0.995,-4.843C-0.96,-5.031,-2.865,-4.56,-4.294,-3.642C-5.74,-2.735,-6.734,-1.498,-7.368,-0.375C-8.624,1.929,-8.503,3.66,-8.615,3.632C-8.631,3.631,-8.64,3.529,-8.643,3.333C-8.653,3.137,-8.637,2.85,-8.598,2.478C-8.515,1.739,-8.266,0.669,-7.658,-0.53C-7.039,-1.712,-6.032,-3.028,-4.523,-4.002C-3.029,-4.991,-1.016,-5.504,1.042,-5.305C3.096,-5.096,4.973,-4.189,6.212,-2.886C7.468,-1.595,8.117,-0.056,8.389,1.253C8.649,2.576,8.559,3.68,8.396,4.406C8.311,4.77,8.233,5.048,8.154,5.228C8.084,5.411,8.04,5.504,8.025,5.499Z" /></g><g id="Group 110" transform="matrix(1,0,0,1,87.209,353.211)"><path fill="#ff8100" fill-opacity="1" d="M0.749,-14.952L-0.573,5.005C-0.573,5.005,19.291,11.598,19.405,15.31L-19.405,15.591L-18.621,-15.59L0.749,-14.952Z" /></g><g id="Group 109" transform="matrix(1,0,0,1,75.032,357.625)"><path fill="#ffffff" fill-opacity="1" d="M-0.339,-1.453C-1.096,-1.27,-1.64,-0.441,-1.489,0.322C-1.338,1.086,-0.5,1.647,0.26,1.478C1.02,1.309,1.704,0.334,1.468,-0.408C1.232,-1.15,0.213,-1.755,-0.485,-1.408" /></g><g id="Group 108" transform="matrix(1,0,0,1,87.308,367.23)"><path fill="#ffffff" fill-opacity="1" d="M-19.504,1.571L-19.425,-1.572L18.059,-0.537C18.059,-0.537,19.306,0.002,19.504,1.571L-19.504,1.571Z" /></g><g id="Group 107" transform="matrix(1,0,0,1,85.429,358.916)"><path fill="#263238" fill-opacity="1" d="M1.841,-0.877C1.829,-0.689,0.88,-0.631,-0.071,-0.05C-1.036,0.506,-1.542,1.311,-1.714,1.231C-1.887,1.189,-1.571,0.065,-0.408,-0.617C0.749,-1.311,1.887,-1.05,1.841,-0.877Z" /></g><g id="Group 106" transform="matrix(1,0,0,1,89.906,361.203)"><path fill="#263238" fill-opacity="1" d="M1.383,-1.358C1.421,-1.173,0.59,-0.877,-0.077,-0.094C-0.768,0.667,-0.957,1.529,-1.145,1.515C-1.324,1.539,-1.42,0.425,-0.572,-0.53C0.268,-1.494,1.384,-1.539,1.383,-1.358Z" /></g><g id="Group 105" transform="matrix(1,0,0,1,94.099,363.125)"><path fill="#263238" fill-opacity="1" d="M-0.647,1.658C-0.82,1.693,-1.055,0.739,-0.538,-0.283C-0.027,-1.31,0.878,-1.692,0.954,-1.531C1.056,-1.373,0.463,-0.833,0.051,0.012C-0.381,0.848,-0.459,1.645,-0.647,1.658Z" /></g><g id="Group 104" transform="matrix(1,0,0,1,85.049,353.207)"><path fill="#263238" fill-opacity="1" d="M2.019,0.25C1.935,0.42,1.072,0.133,-0.001,0.173C-1.074,0.191,-1.918,0.525,-2.012,0.36C-2.117,0.22,-1.282,-0.457,-0.018,-0.486C1.246,-0.525,2.117,0.104,2.019,0.25Z" /></g><g id="Group 103" transform="matrix(1,0,0,1,84.295,347.889)"><path fill="#263238" fill-opacity="1" d="M2.965,1.536C2.965,1.614,2.213,1.709,1.023,1.467C0.43,1.346,-0.266,1.13,-0.992,0.781C-1.354,0.606,-1.723,0.4,-2.089,0.156C-2.264,0.036,-2.472,-0.087,-2.661,-0.318C-2.865,-0.523,-2.971,-1.027,-2.719,-1.328C-2.511,-1.62,-2.156,-1.739,-1.876,-1.737C-1.589,-1.738,-1.359,-1.672,-1.15,-1.613C-0.721,-1.496,-0.32,-1.341,0.046,-1.163C0.777,-0.804,1.365,-0.36,1.801,0.066C2.675,0.927,2.962,1.644,2.896,1.68C2.809,1.739,2.388,1.134,1.493,0.418C1.047,0.061,0.474,-0.311,-0.21,-0.612C-0.553,-0.761,-0.922,-0.89,-1.314,-0.988C-1.722,-1.109,-2.071,-1.123,-2.182,-0.943C-2.222,-0.874,-2.228,-0.847,-2.146,-0.724C-2.06,-0.61,-1.897,-0.497,-1.725,-0.378C-1.389,-0.144,-1.05,0.061,-0.717,0.24C-0.051,0.597,0.589,0.845,1.139,1.016C2.241,1.36,2.971,1.433,2.965,1.536Z" /></g><g id="Group 102" transform="matrix(1,0,0,1,88.122,346.642)"><path fill="#263238" fill-opacity="1" d="M-1.117,3.047C-1.185,3.074,-1.54,2.384,-1.573,1.155C-1.587,0.546,-1.501,-0.189,-1.243,-0.963C-1.112,-1.349,-0.938,-1.743,-0.713,-2.128C-0.474,-2.504,-0.181,-3.009,0.556,-3.071C0.94,-3.074,1.25,-2.765,1.351,-2.505C1.471,-2.239,1.49,-2.013,1.529,-1.787C1.587,-1.331,1.565,-0.888,1.49,-0.478C1.343,0.344,0.985,1.021,0.6,1.503C-0.188,2.485,-0.986,2.688,-0.999,2.623C-1.06,2.526,-0.388,2.181,0.221,1.233C0.521,0.765,0.794,0.145,0.89,-0.574C0.94,-0.932,0.946,-1.313,0.889,-1.698C0.841,-2.112,0.696,-2.449,0.54,-2.412C0.348,-2.421,0.01,-2.12,-0.159,-1.796C-0.368,-1.454,-0.537,-1.103,-0.671,-0.758C-0.935,-0.064,-1.062,0.604,-1.106,1.169C-1.194,2.306,-1.013,3.022,-1.117,3.047Z" /></g><g id="Group 101" transform="matrix(1,0,0,1,46.237,260.333)"><path fill="#263238" fill-opacity="1" d="M41.722,-95.457L-17.412,-95.902L-45.987,91.777L-21.445,94.892L10.007,-59.426L19.421,95.44L19.446,95.901L45.987,95.439L41.722,-95.457Z" /></g><g id="Group 100" transform="matrix(1,0,0,1,69.873,189.968)"><path fill="#455a64" fill-opacity="1" d="M-8.811,-9.882C-8.829,-9.901,-8.404,-9.927,-7.588,-9.962C-6.703,-9.994,-5.512,-10.038,-4.032,-10.092C-0.863,-10.182,3.533,-10.307,8.748,-10.454L8.991,-10.461L8.992,-10.215C9.001,-6.507,9.011,-2.359,9.022,2.043L9.022,2.161L8.935,2.241C8.225,2.893,7.471,3.587,6.709,4.288C4.432,6.375,2.229,8.393,0.147,10.302L-0.027,10.461L-0.202,10.305C-3.454,7.406,-6.421,4.762,-8.95,2.508L-9.022,2.443L-9.021,2.35C-8.975,-1.378,-8.937,-4.44,-8.91,-6.644C-8.888,-7.646,-8.87,-8.452,-8.857,-9.067C-8.841,-9.616,-8.826,-9.898,-8.811,-9.882C-8.796,-9.867,-8.781,-9.558,-8.765,-8.986C-8.751,-8.359,-8.733,-7.537,-8.711,-6.516C-8.685,-4.343,-8.646,-1.324,-8.601,2.35L-8.671,2.193C-6.123,4.425,-3.134,7.044,0.143,9.914L-0.205,9.918C1.872,8.005,4.07,5.981,6.342,3.889C7.106,3.189,7.86,2.496,8.57,1.845L8.483,2.043C8.494,-2.359,8.504,-6.507,8.513,-10.215L8.757,-9.976C3.602,-9.927,-0.743,-9.886,-3.874,-9.857C-5.378,-9.855,-6.587,-9.853,-7.487,-9.852C-7.874,-9.856,-8.192,-9.859,-8.458,-9.861C-8.682,-9.866,-8.802,-9.873,-8.811,-9.882Z" /></g><g id="Group 99" transform="matrix(1,0,0,1,40.383,189.849)"><path fill="#455a64" fill-opacity="1" d="M-7.151,-10.577C-7.167,-10.597,-6.788,-10.575,-6.06,-10.52C-5.261,-10.455,-4.197,-10.369,-2.879,-10.262C-0.029,-10.003,3.917,-9.644,8.621,-9.219L8.86,-9.197L8.831,-8.956C8.398,-5.329,7.904,-1.196,7.377,3.214L7.365,3.324L7.278,3.393C6.464,4.043,5.602,4.731,4.729,5.428C2.553,7.159,0.444,8.838,-1.56,10.434L-1.766,10.596L-1.928,10.391C-4.469,7.179,-6.799,4.234,-8.803,1.699L-8.86,1.628L-8.849,1.54C-8.352,-2.139,-7.942,-5.174,-7.647,-7.365C-7.503,-8.356,-7.386,-9.157,-7.297,-9.77C-7.214,-10.315,-7.165,-10.594,-7.151,-10.577C-7.138,-10.559,-7.16,-10.248,-7.213,-9.676C-7.276,-9.048,-7.359,-8.226,-7.461,-7.21C-7.697,-5.044,-8.026,-2.045,-8.424,1.592L-8.469,1.432C-6.443,3.949,-4.088,6.876,-1.519,10.066L-1.887,10.025C0.114,8.425,2.219,6.741,4.391,5.005C5.265,4.309,6.128,3.621,6.942,2.973L6.843,3.15C7.394,-1.258,7.912,-5.39,8.365,-9.014L8.575,-8.751C3.94,-9.268,0.052,-9.702,-2.754,-10.014C-4.09,-10.176,-5.166,-10.305,-5.976,-10.402C-6.726,-10.497,-7.135,-10.557,-7.151,-10.577Z" /></g><g id="Group 98" transform="matrix(1,0,0,1,60.328,203.227)"><path fill="#455a64" fill-opacity="1" d="M9.083,4.533C9.044,4.599,8.03,4.081,6.402,3.23C4.774,2.379,2.526,1.205,0.021,-0.046C-2.486,-1.296,-4.776,-2.386,-6.436,-3.174C-8.095,-3.963,-9.119,-4.461,-9.088,-4.532C-9.061,-4.599,-7.983,-4.225,-6.281,-3.524C-4.578,-2.823,-2.253,-1.784,0.263,-0.53C2.777,0.724,5.004,1.957,6.588,2.895C8.173,3.834,9.119,4.471,9.083,4.533Z" /></g><g id="Group 97" transform="matrix(1,0,0,1,63.593,207.31)"><path fill="#455a64" fill-opacity="1" d="M5.058,5.006C5.036,5.065,4.235,4.846,3.04,4.246C1.847,3.652,0.284,2.629,-1.177,1.195C-2.633,-0.244,-3.679,-1.793,-4.292,-2.976C-4.909,-4.162,-5.14,-4.959,-5.081,-4.981C-4.925,-5.066,-3.67,-1.984,-0.798,0.81C2.038,3.638,5.141,4.849,5.058,5.006Z" /></g><g id="Group 96" transform="matrix(1,0,0,1,74.869,271.909)"><path fill="#455a64" fill-opacity="1" d="M10.475,-5.362C10.506,-5.352,10.428,-4.998,10.207,-4.382C9.988,-3.765,9.595,-2.896,8.974,-1.899C7.757,0.088,5.421,2.575,2.073,3.992C-1.279,5.402,-4.692,5.34,-6.964,4.826C-8.112,4.576,-9.009,4.25,-9.604,3.978C-10.199,3.705,-10.506,3.514,-10.492,3.486C-10.453,3.387,-9.157,4.054,-6.892,4.451C-4.654,4.858,-1.364,4.851,1.862,3.492C5.085,2.129,7.384,-0.222,8.654,-2.109C9.951,-4.008,10.377,-5.402,10.475,-5.362Z" /></g><g id="Group 95" transform="matrix(1,0,0,1,73.219,265.94)"><path fill="#455a64" fill-opacity="1" d="M8.237,-0.993C8.263,-0.937,7.436,-0.465,5.977,0.004C4.524,0.481,2.427,0.893,0.094,0.976C-2.239,1.074,-4.345,0.855,-5.848,0.626C-7.352,0.386,-8.262,0.138,-8.249,0.071C-8.224,-0.114,-4.518,0.605,0.074,0.435C2.365,0.353,4.419,0.01,5.872,-0.363C7.329,-0.73,8.202,-1.073,8.237,-0.993Z" /></g><g id="Group 94" transform="matrix(1,0,0,1,28.872,269.336)"><path fill="#455a64" fill-opacity="1" d="M8.618,-3.273C8.66,-3.229,7.935,-2.446,6.561,-1.41C5.192,-0.373,3.134,0.867,0.667,1.789C-1.802,2.705,-4.169,3.113,-5.882,3.224C-7.599,3.339,-8.659,3.22,-8.656,3.161C-8.656,3.071,-7.601,3.053,-5.921,2.843C-4.241,2.637,-1.939,2.178,0.48,1.282C2.894,0.378,4.934,-0.78,6.34,-1.722C7.748,-2.663,8.559,-3.339,8.618,-3.273Z" /></g><g id="Group 93" transform="matrix(1,0,0,1,26.943,265.679)"><path fill="#455a64" fill-opacity="1" d="M5.364,0.157C5.397,0.289,2.972,0.853,-0.059,0.602C-3.092,0.37,-5.396,-0.572,-5.343,-0.697C-5.295,-0.853,-2.971,-0.161,-0.016,0.063C2.935,0.309,5.341,-0.005,5.364,0.157Z" /></g><g id="Group 92" transform="matrix(1,0,0,1,46.193,203.91)"><path fill="#455a64" fill-opacity="1" d="M9.7,-1.708C9.726,-1.648,8.733,-1.131,7.04,-0.503C5.349,0.127,2.943,0.829,0.219,1.269C-2.508,1.702,-5.015,1.785,-6.818,1.715C-8.622,1.646,-9.725,1.467,-9.719,1.402C-9.713,1.318,-8.602,1.363,-6.814,1.333C-5.026,1.306,-2.558,1.161,0.133,0.732C2.822,0.3,5.21,-0.334,6.917,-0.865C8.625,-1.395,9.667,-1.786,9.7,-1.708Z" /></g><g id="Group 91" transform="matrix(1,0,0,1,54.293,197.184)"><path fill="#455a64" fill-opacity="1" d="M-0.014,-1.04C0.135,-1.041,0.263,-0.578,0.271,-0.005C0.278,0.568,0.164,1.035,0.014,1.038C-0.135,1.041,-0.263,0.578,-0.27,0.003C-0.278,-0.572,-0.163,-1.039,-0.014,-1.04Z" /></g><g id="Group 90" transform="matrix(1,0,0,1,54.278,193.025)"><path fill="#455a64" fill-opacity="1" d="M0.006,-1.038C0.155,-1.036,0.274,-0.57,0.271,0.003C0.267,0.576,0.143,1.041,-0.006,1.041C-0.156,1.041,-0.274,0.575,-0.271,0C-0.267,-0.575,-0.143,-1.04,0.006,-1.038Z" /></g><g id="Group 89" transform="matrix(1,0,0,1,54.343,188.868)"><path fill="#455a64" fill-opacity="1" d="M0.027,-1.038C0.176,-1.033,0.286,-0.565,0.271,0.008C0.256,0.581,0.123,1.043,-0.027,1.04C-0.176,1.037,-0.286,0.568,-0.271,-0.006C-0.256,-0.581,-0.122,-1.043,0.027,-1.038Z" /></g><g id="Group 88" transform="matrix(1,0,0,1,54.489,184.713)"><path fill="#455a64" fill-opacity="1" d="M0.047,-1.037C0.196,-1.03,0.297,-0.559,0.271,0.013C0.245,0.586,0.102,1.045,-0.047,1.039C-0.196,1.034,-0.297,0.564,-0.271,-0.011C-0.245,-0.586,-0.102,-1.045,0.047,-1.037Z" /></g><g id="Group 87" transform="matrix(1,0,0,1,54.715,180.561)"><path fill="#455a64" fill-opacity="1" d="M0.067,-1.036C0.216,-1.026,0.307,-0.554,0.271,0.019C0.234,0.591,0.083,1.047,-0.066,1.038C-0.215,1.029,-0.307,0.558,-0.269,-0.016C-0.233,-0.59,-0.082,-1.047,0.067,-1.036Z" /></g><g id="Group 86" transform="matrix(1,0,0,1,55.022,176.415)"><path fill="#455a64" fill-opacity="1" d="M0.087,-1.035C0.236,-1.022,0.318,-0.547,0.27,0.024C0.222,0.595,0.062,1.049,-0.088,1.037C-0.237,1.026,-0.318,0.552,-0.27,-0.021C-0.223,-0.594,-0.062,-1.049,0.087,-1.035Z" /></g><g id="Group 85" transform="matrix(1,0,0,1,55.369,172.647)"><path fill="#455a64" fill-opacity="1" d="M0.068,-0.661C0.217,-0.645,0.307,-0.337,0.27,0.028C0.233,0.394,0.081,0.678,-0.068,0.663C-0.216,0.65,-0.307,0.34,-0.269,-0.026C-0.232,-0.392,-0.08,-0.678,0.068,-0.661Z" /></g><g id="Group 84" transform="matrix(1,0,0,1,21.803,352.128)"><path fill="#455a64" fill-opacity="1" d="M0.204,-1.019C0.351,-0.99,0.378,-0.509,0.266,0.053C0.153,0.617,-0.057,1.049,-0.204,1.02C-0.35,0.991,-0.378,0.51,-0.265,-0.052C-0.152,-0.616,0.058,-1.048,0.204,-1.019Z" /></g><g id="Group 83" transform="matrix(1,0,0,1,22.619,348.051)"><path fill="#455a64" fill-opacity="1" d="M0.204,-1.019C0.35,-0.99,0.378,-0.509,0.265,0.053C0.153,0.616,-0.057,1.048,-0.204,1.019C-0.351,0.99,-0.378,0.51,-0.266,-0.053C-0.153,-0.616,0.057,-1.048,0.204,-1.019Z" /></g><g id="Group 82" transform="matrix(1,0,0,1,23.434,343.975)"><path fill="#455a64" fill-opacity="1" d="M0.204,-1.019C0.351,-0.99,0.378,-0.51,0.266,0.053C0.153,0.616,-0.057,1.048,-0.204,1.019C-0.35,0.99,-0.378,0.509,-0.265,-0.053C-0.152,-0.616,0.058,-1.048,0.204,-1.019Z" /></g><g id="Group 81" transform="matrix(1,0,0,1,24.25,339.898)"><path fill="#455a64" fill-opacity="1" d="M0.204,-1.02C0.35,-0.991,0.378,-0.509,0.266,0.053C0.153,0.617,-0.057,1.049,-0.204,1.02C-0.35,0.991,-0.378,0.51,-0.265,-0.052C-0.153,-0.616,0.058,-1.049,0.204,-1.02Z" /></g><g id="Group 80" transform="matrix(1,0,0,1,25.065,335.822)"><path fill="#455a64" fill-opacity="1" d="M0.204,-1.019C0.35,-0.99,0.378,-0.509,0.266,0.053C0.153,0.616,-0.057,1.048,-0.204,1.019C-0.35,0.99,-0.378,0.51,-0.265,-0.053C-0.153,-0.616,0.058,-1.048,0.204,-1.019Z" /></g><g id="Group 79" transform="matrix(1,0,0,1,25.88,331.745)"><path fill="#455a64" fill-opacity="1" d="M0.204,-1.019C0.35,-0.99,0.378,-0.51,0.266,0.053C0.153,0.616,-0.057,1.048,-0.204,1.019C-0.35,0.99,-0.378,0.509,-0.265,-0.053C-0.152,-0.616,0.058,-1.048,0.204,-1.019Z" /></g><g id="Group 78" transform="matrix(1,0,0,1,26.696,327.669)"><path fill="#455a64" fill-opacity="1" d="M0.204,-1.02C0.35,-0.991,0.378,-0.51,0.266,0.052C0.153,0.616,-0.057,1.049,-0.204,1.02C-0.35,0.991,-0.378,0.51,-0.265,-0.053C-0.152,-0.616,0.058,-1.049,0.204,-1.02Z" /></g><g id="Group 77" transform="matrix(1,0,0,1,27.511,323.592)"><path fill="#455a64" fill-opacity="1" d="M0.204,-1.019C0.35,-0.99,0.378,-0.509,0.266,0.053C0.153,0.616,-0.057,1.048,-0.204,1.019C-0.35,0.99,-0.378,0.51,-0.265,-0.053C-0.152,-0.616,0.058,-1.048,0.204,-1.019Z" /></g><g id="Group 76" transform="matrix(1,0,0,1,28.327,319.516)"><path fill="#455a64" fill-opacity="1" d="M0.204,-1.019C0.35,-0.99,0.378,-0.51,0.265,0.052C0.153,0.616,-0.057,1.048,-0.204,1.019C-0.351,0.99,-0.378,0.509,-0.266,-0.053C-0.153,-0.616,0.057,-1.048,0.204,-1.019Z" /></g><g id="Group 75" transform="matrix(1,0,0,1,29.142,315.439)"><path fill="#455a64" fill-opacity="1" d="M0.204,-1.019C0.351,-0.99,0.378,-0.509,0.266,0.053C0.153,0.617,-0.057,1.048,-0.203,1.019C-0.35,0.99,-0.378,0.51,-0.265,-0.053C-0.152,-0.616,0.058,-1.048,0.204,-1.019Z" /></g><g id="Group 74" transform="matrix(1,0,0,1,29.958,311.363)"><path fill="#455a64" fill-opacity="1" d="M0.204,-1.019C0.35,-0.99,0.378,-0.51,0.266,0.053C0.153,0.616,-0.057,1.048,-0.204,1.019C-0.35,0.99,-0.378,0.51,-0.265,-0.053C-0.153,-0.616,0.058,-1.048,0.204,-1.019Z" /></g><g id="Group 73" transform="matrix(1,0,0,1,30.773,307.286)"><path fill="#455a64" fill-opacity="1" d="M0.204,-1.019C0.35,-0.99,0.378,-0.51,0.266,0.052C0.153,0.616,-0.057,1.048,-0.204,1.019C-0.35,0.99,-0.378,0.509,-0.265,-0.053C-0.153,-0.617,0.058,-1.048,0.204,-1.019Z" /></g><g id="Group 72" transform="matrix(1,0,0,1,31.589,303.209)"><path fill="#455a64" fill-opacity="1" d="M0.204,-1.019C0.35,-0.99,0.378,-0.509,0.266,0.053C0.153,0.617,-0.057,1.048,-0.204,1.019C-0.35,0.99,-0.378,0.51,-0.265,-0.053C-0.152,-0.616,0.058,-1.048,0.204,-1.019Z" /></g><g id="Group 71" transform="matrix(1,0,0,1,32.404,299.133)"><path fill="#455a64" fill-opacity="1" d="M0.204,-1.019C0.35,-0.99,0.378,-0.51,0.266,0.053C0.153,0.616,-0.057,1.048,-0.204,1.019C-0.35,0.99,-0.378,0.509,-0.265,-0.053C-0.152,-0.616,0.058,-1.048,0.204,-1.019Z" /></g><g id="Group 70" transform="matrix(1,0,0,1,33.22,295.056)"><path fill="#455a64" fill-opacity="1" d="M0.204,-1.02C0.35,-0.991,0.378,-0.509,0.266,0.053C0.153,0.617,-0.057,1.049,-0.204,1.02C-0.35,0.991,-0.378,0.51,-0.265,-0.052C-0.152,-0.616,0.058,-1.049,0.204,-1.02Z" /></g><g id="Group 69" transform="matrix(1,0,0,1,34.035,290.98)"><path fill="#455a64" fill-opacity="1" d="M0.204,-1.019C0.351,-0.99,0.378,-0.509,0.266,0.053C0.153,0.617,-0.057,1.048,-0.204,1.019C-0.35,0.99,-0.378,0.51,-0.265,-0.053C-0.152,-0.616,0.058,-1.048,0.204,-1.019Z" /></g><g id="Group 68" transform="matrix(1,0,0,1,34.851,286.904)"><path fill="#455a64" fill-opacity="1" d="M0.204,-1.019C0.351,-0.99,0.378,-0.51,0.266,0.053C0.153,0.616,-0.057,1.048,-0.204,1.019C-0.35,0.99,-0.378,0.509,-0.265,-0.053C-0.152,-0.616,0.058,-1.048,0.204,-1.019Z" /></g><g id="Group 67" transform="matrix(1,0,0,1,35.666,282.827)"><path fill="#455a64" fill-opacity="1" d="M0.204,-1.019C0.351,-0.99,0.378,-0.51,0.266,0.052C0.153,0.616,-0.057,1.048,-0.204,1.019C-0.35,0.99,-0.378,0.509,-0.265,-0.053C-0.152,-0.617,0.058,-1.048,0.204,-1.019Z" /></g><g id="Group 66" transform="matrix(1,0,0,1,36.482,278.75)"><path fill="#455a64" fill-opacity="1" d="M0.204,-1.019C0.35,-0.99,0.378,-0.509,0.266,0.053C0.153,0.616,-0.057,1.048,-0.204,1.019C-0.35,0.99,-0.378,0.51,-0.265,-0.053C-0.153,-0.616,0.058,-1.048,0.204,-1.019Z" /></g><g id="Group 65" transform="matrix(1,0,0,1,37.297,274.674)"><path fill="#455a64" fill-opacity="1" d="M0.204,-1.019C0.35,-0.99,0.378,-0.51,0.266,0.053C0.153,0.616,-0.057,1.048,-0.204,1.019C-0.35,0.99,-0.378,0.509,-0.265,-0.053C-0.153,-0.616,0.058,-1.048,0.204,-1.019Z" /></g><g id="Group 64" transform="matrix(1,0,0,1,38.113,270.597)"><path fill="#455a64" fill-opacity="1" d="M0.204,-1.02C0.35,-0.991,0.378,-0.51,0.266,0.052C0.153,0.616,-0.057,1.049,-0.204,1.02C-0.35,0.991,-0.378,0.51,-0.265,-0.052C-0.152,-0.616,0.058,-1.049,0.204,-1.02Z" /></g><g id="Group 63" transform="matrix(1,0,0,1,38.928,266.521)"><path fill="#455a64" fill-opacity="1" d="M0.204,-1.019C0.35,-0.99,0.378,-0.509,0.266,0.053C0.153,0.616,-0.057,1.048,-0.204,1.019C-0.35,0.99,-0.378,0.51,-0.265,-0.053C-0.152,-0.616,0.058,-1.048,0.204,-1.019Z" /></g><g id="Group 62" transform="matrix(1,0,0,1,39.744,262.445)"><path fill="#455a64" fill-opacity="1" d="M0.204,-1.019C0.35,-0.99,0.378,-0.51,0.266,0.053C0.153,0.616,-0.057,1.048,-0.204,1.019C-0.35,0.99,-0.378,0.509,-0.265,-0.053C-0.152,-0.616,0.058,-1.048,0.204,-1.019Z" /></g><g id="Group 61" transform="matrix(1,0,0,1,40.559,258.368)"><path fill="#455a64" fill-opacity="1" d="M0.204,-1.02C0.351,-0.991,0.378,-0.51,0.266,0.052C0.153,0.616,-0.057,1.048,-0.204,1.019C-0.35,0.989,-0.378,0.509,-0.265,-0.053C-0.152,-0.617,0.058,-1.049,0.204,-1.02Z" /></g><g id="Group 60" transform="matrix(1,0,0,1,41.375,254.291)"><path fill="#455a64" fill-opacity="1" d="M0.204,-1.019C0.351,-0.99,0.378,-0.509,0.266,0.053C0.153,0.616,-0.057,1.048,-0.204,1.019C-0.35,0.99,-0.378,0.51,-0.265,-0.053C-0.152,-0.616,0.058,-1.048,0.204,-1.019Z" /></g><g id="Group 59" transform="matrix(1,0,0,1,42.19,250.215)"><path fill="#455a64" fill-opacity="1" d="M0.204,-1.019C0.35,-0.99,0.378,-0.51,0.266,0.053C0.153,0.616,-0.057,1.048,-0.204,1.019C-0.35,0.99,-0.378,0.509,-0.265,-0.053C-0.153,-0.617,0.058,-1.048,0.204,-1.019Z" /></g><g id="Group 58" transform="matrix(1,0,0,1,43.006,246.138)"><path fill="#455a64" fill-opacity="1" d="M0.204,-1.02C0.35,-0.991,0.378,-0.509,0.266,0.053C0.153,0.617,-0.057,1.049,-0.204,1.019C-0.35,0.99,-0.378,0.51,-0.265,-0.053C-0.153,-0.616,0.058,-1.049,0.204,-1.02Z" /></g><g id="Group 57" transform="matrix(1,0,0,1,43.821,242.062)"><path fill="#455a64" fill-opacity="1" d="M0.204,-1.019C0.35,-0.99,0.378,-0.509,0.266,0.053C0.153,0.616,-0.057,1.048,-0.204,1.019C-0.35,0.99,-0.378,0.51,-0.265,-0.053C-0.152,-0.616,0.058,-1.048,0.204,-1.019Z" /></g><g id="Group 56" transform="matrix(1,0,0,1,44.637,237.986)"><path fill="#455a64" fill-opacity="1" d="M0.204,-1.019C0.35,-0.99,0.378,-0.51,0.266,0.052C0.153,0.616,-0.057,1.048,-0.204,1.019C-0.35,0.99,-0.378,0.509,-0.265,-0.053C-0.152,-0.617,0.058,-1.048,0.204,-1.019Z" /></g><g id="Group 55" transform="matrix(1,0,0,1,45.452,233.908)"><path fill="#455a64" fill-opacity="1" d="M0.204,-1.019C0.35,-0.99,0.378,-0.509,0.266,0.053C0.153,0.617,-0.057,1.048,-0.204,1.019C-0.35,0.99,-0.378,0.51,-0.265,-0.053C-0.152,-0.616,0.058,-1.048,0.204,-1.019Z" /></g><g id="Group 54" transform="matrix(1,0,0,1,46.268,229.832)"><path fill="#455a64" fill-opacity="1" d="M0.204,-1.019C0.35,-0.99,0.378,-0.509,0.266,0.053C0.153,0.616,-0.057,1.048,-0.204,1.019C-0.35,0.99,-0.378,0.51,-0.265,-0.053C-0.152,-0.616,0.058,-1.048,0.204,-1.019Z" /></g><g id="Group 53" transform="matrix(1,0,0,1,47.083,225.756)"><path fill="#455a64" fill-opacity="1" d="M0.204,-1.02C0.35,-0.99,0.378,-0.51,0.266,0.053C0.153,0.616,-0.057,1.048,-0.204,1.019C-0.35,0.99,-0.378,0.509,-0.265,-0.053C-0.152,-0.617,0.058,-1.049,0.204,-1.02Z" /></g><g id="Group 52" transform="matrix(1,0,0,1,47.898,221.679)"><path fill="#455a64" fill-opacity="1" d="M0.204,-1.019C0.351,-0.99,0.378,-0.509,0.266,0.053C0.153,0.616,-0.057,1.048,-0.204,1.019C-0.35,0.99,-0.378,0.51,-0.265,-0.053C-0.152,-0.616,0.058,-1.048,0.204,-1.019Z" /></g><g id="Group 51" transform="matrix(1,0,0,1,48.714,217.603)"><path fill="#455a64" fill-opacity="1" d="M0.204,-1.019C0.35,-0.99,0.378,-0.51,0.266,0.053C0.153,0.616,-0.057,1.048,-0.204,1.019C-0.35,0.99,-0.378,0.51,-0.265,-0.053C-0.153,-0.616,0.057,-1.048,0.204,-1.019Z" /></g><g id="Group 50" transform="matrix(1,0,0,1,49.53,213.526)"><path fill="#455a64" fill-opacity="1" d="M0.204,-1.02C0.35,-0.991,0.378,-0.51,0.266,0.052C0.153,0.616,-0.057,1.048,-0.204,1.019C-0.351,0.99,-0.378,0.509,-0.265,-0.053C-0.153,-0.617,0.058,-1.049,0.204,-1.02Z" /></g><g id="Group 49" transform="matrix(1,0,0,1,50.345,209.449)"><path fill="#455a64" fill-opacity="1" d="M0.204,-1.019C0.35,-0.99,0.378,-0.509,0.266,0.053C0.153,0.617,-0.057,1.048,-0.204,1.019C-0.35,0.99,-0.378,0.51,-0.265,-0.053C-0.153,-0.616,0.058,-1.048,0.204,-1.019Z" /></g><g id="Group 48" transform="matrix(1,0,0,1,51.161,205.373)"><path fill="#455a64" fill-opacity="1" d="M0.204,-1.019C0.35,-0.99,0.378,-0.51,0.266,0.053C0.153,0.616,-0.057,1.048,-0.204,1.019C-0.35,0.99,-0.378,0.509,-0.265,-0.053C-0.152,-0.616,0.058,-1.048,0.204,-1.019Z" /></g><g id="Group 37" transform="matrix(1,0,0,1,68.401,41.375)"><path fill="#ffbe9d" fill-opacity="1" d="M-16.236,-22.344L-16.389,27.453L4.975,28.471L5.593,16.359C5.593,16.359,13.181,17.866,15.138,10.82C16.389,6.318,16.077,-28.471,16.077,-28.471L-16.236,-22.344Z" /></g><g id="Group 36" transform="matrix(1,0,0,1,69.346,29.034)"><path fill="#263238" fill-opacity="1" d="M17.943,-12.625C14.578,-11.662,13.846,-6.162,13.846,-6.162L8.568,5.495C5.879,3.39,2.27,3.511,1.587,8.236C1.093,11.65,5.337,12.34,5.337,12.34C2.866,16.546,1.19,19.948,-2.409,23.947C-6.303,28.277,-8.484,28.713,-12.708,28.784L-17.365,28.784C-17.365,28.784,-19.644,21.384,-23.865,2.878C-28.549,-17.653,-4.272,-15.008,0.229,-20.249C7.559,-28.784,28.55,-15.662,17.943,-12.625Z" /></g><g id="Group 35" transform="matrix(1,0,0,1,67.6,17.189)"><path fill="#263238" fill-opacity="1" d="M-21.676,16.659C-25.612,14.015,-25.967,6.619,-23.671,2.184C-21.375,-2.252,-16.543,-5.257,-11.55,-5.354C-10.882,-5.367,-10.193,-5.335,-9.57,-5.576C-8.646,-5.932,-8.048,-6.808,-7.444,-7.593C-3.927,-12.166,-0.47,-16.659,6.085,-16.658C7.15,-16.658,8.327,-16.658,10.206,-15.636C11.142,-15.127,12.461,-13.401,12.682,-12.36C13.914,-12.944,15.169,-13.534,16.517,-13.738C17.865,-13.943,19.345,-13.707,20.363,-12.8C21.382,-11.894,21.758,-10.225,20.967,-9.115C23.176,-9.255,25.27,-7.426,25.618,-5.24C25.966,-3.053,22.834,-1.517,22.508,-1.347C22.508,-1.347,24.226,2.253,20.126,4.411C18.474,5.28,16.329,4.233,16.085,4.107" /></g><g id="Group 34" transform="matrix(1,0,0,1,60.81,42.29)"><path fill="#455a64" fill-opacity="1" d="M0.713,-3.654C0.851,-3.668,1.063,-1.941,0.59,0.127C0.131,2.198,-0.801,3.668,-0.919,3.596C-1.062,3.524,-0.377,1.998,0.063,0.008C0.518,-1.978,0.553,-3.65,0.713,-3.654Z" /></g><g id="Group 33" transform="matrix(1,0,0,1,63.456,39.764)"><path fill="#455a64" fill-opacity="1" d="M0.65,-3.572C0.794,-3.566,0.825,-1.919,0.451,0.068C0.084,2.057,-0.539,3.581,-0.676,3.535C-0.824,3.489,-0.442,1.919,-0.081,-0.031C0.285,-1.979,0.496,-3.581,0.65,-3.572Z" /></g><g id="Group 32" transform="matrix(1,0,0,1,68.781,33.828)"><path fill="#455a64" fill-opacity="1" d="M2.725,-5.854C2.776,-5.783,2.171,-5.342,1.403,-4.441C0.628,-3.551,-0.254,-2.157,-0.899,-0.468C-1.546,1.223,-1.901,2.842,-2.176,4.01C-2.444,5.182,-2.629,5.907,-2.705,5.894C-2.776,5.881,-2.725,5.136,-2.552,3.939C-2.372,2.747,-2.072,1.085,-1.404,-0.663C-0.737,-2.412,0.242,-3.844,1.122,-4.701C1.997,-5.571,2.694,-5.907,2.725,-5.854Z" /></g><g id="Group 31" transform="matrix(1,0,0,1,73.601,26.805)"><path fill="#455a64" fill-opacity="1" d="M0.896,-4.427C0.958,-4.444,1.177,-3.944,1.311,-3.078C1.446,-2.217,1.45,-0.984,1.125,0.32C0.796,1.624,0.21,2.71,-0.315,3.406C-0.841,4.107,-1.27,4.444,-1.316,4.4C-1.45,4.297,-0.004,2.69,0.6,0.19C1.246,-2.299,0.73,-4.4,0.896,-4.427Z" /></g><g id="Group 30" transform="matrix(1,0,0,1,47.671,34.073)"><path fill="#455a64" fill-opacity="1" d="M1.329,0.743C1.256,0.873,0.602,0.647,-0.132,0.237C-0.866,-0.174,-1.402,-0.612,-1.329,-0.742C-1.256,-0.873,-0.602,-0.646,0.132,-0.236C0.866,0.174,1.402,0.613,1.329,0.743Z" /></g><g id="Group 29" transform="matrix(1,0,0,1,58.219,31.397)"><path fill="#455a64" fill-opacity="1" d="M1.102,-1.898C1.243,-1.877,1.156,-0.822,0.492,0.268C-0.165,1.364,-1.058,1.932,-1.142,1.816C-1.243,1.697,-0.572,0.995,0.029,-0.012C0.641,-1.011,0.95,-1.932,1.102,-1.898Z" /></g><g id="Group 28" transform="matrix(1,0,0,1,61.031,30.064)"><path fill="#455a64" fill-opacity="1" d="M1.465,-2.27C1.603,-2.239,1.379,-0.975,0.514,0.318C-0.342,1.618,-1.419,2.315,-1.501,2.2C-1.602,2.079,-0.738,1.24,0.064,0.019C0.877,-1.193,1.314,-2.316,1.465,-2.27Z" /></g><g id="Group 27" transform="matrix(1,0,0,1,64.029,11.162)"><path fill="#455a64" fill-opacity="1" d="M14.241,-4.222C14.204,-4.179,13.841,-4.527,13.07,-4.965C12.299,-5.388,11.069,-5.851,9.491,-5.89C7.928,-5.939,6.007,-5.567,4.238,-4.479C2.468,-3.393,0.903,-1.624,-0.234,0.504C-1.063,2.049,-1.635,3.659,-2.05,5.173L-2.135,5.486L-2.423,5.335C-4.01,4.502,-5.688,4.136,-7.189,4.116C-8.695,4.074,-10.021,4.351,-11.07,4.702C-13.181,5.423,-14.182,6.372,-14.238,6.286C-14.254,6.267,-14.015,6.029,-13.522,5.653C-13.025,5.283,-12.246,4.804,-11.178,4.395C-10.113,3.99,-8.751,3.663,-7.184,3.672C-5.624,3.66,-3.859,4.013,-2.178,4.877L-2.551,5.04C-2.143,3.492,-1.566,1.84,-0.712,0.247C0.461,-1.947,2.102,-3.787,3.98,-4.906C5.862,-6.028,7.877,-6.372,9.507,-6.272C11.153,-6.181,12.417,-5.639,13.178,-5.146C13.553,-4.883,13.833,-4.671,13.997,-4.494C14.17,-4.328,14.254,-4.236,14.241,-4.222Z" /></g><g id="Group 26" transform="matrix(1,0,0,1,77.594,12.284)"><path fill="#455a64" fill-opacity="1" d="M11.91,-2.634C11.872,-2.644,12.505,-2.794,13.136,-2.079C13.425,-1.734,13.69,-1.19,13.628,-0.519C13.563,0.151,13.1,0.842,12.386,1.255C11.683,1.685,10.721,1.829,9.791,1.612C8.855,1.408,7.955,0.912,7.113,0.314C6.264,-0.28,5.448,-0.971,4.494,-1.481C3.542,-1.998,2.47,-2.375,1.338,-2.591C-0.936,-3.014,-3.195,-2.759,-5.103,-2.149C-7.022,-1.534,-8.615,-0.61,-9.864,0.271C-12.358,2.064,-13.589,3.565,-13.665,3.487C-13.69,3.466,-13.405,3.078,-12.82,2.435C-12.23,1.799,-11.338,0.902,-10.09,-0.038C-8.846,-0.975,-7.233,-1.96,-5.257,-2.623C-3.289,-3.281,-0.942,-3.565,1.438,-3.122C2.623,-2.897,3.75,-2.497,4.749,-1.946C5.759,-1.395,6.584,-0.679,7.402,-0.092C8.214,0.501,9.046,0.971,9.891,1.174C10.732,1.387,11.56,1.281,12.196,0.923C12.834,0.581,13.247,-0.003,13.327,-0.556C13.409,-1.119,13.206,-1.622,12.971,-1.948C12.463,-2.628,11.882,-2.574,11.91,-2.634Z" /></g><g id="Group 25" transform="matrix(1,0,0,1,17.076,103.874)"><path fill="#ff8100" fill-opacity="1" d="M12.345,-29.832L-6.735,2.211C-8.87,5.948,-10.846,9.934,-12.732,14.064C-14.253,18.021,-13.373,23.186,-10.718,26.47L-11.257,25.694C-9.141,28.311,-5.956,29.832,-2.59,29.832L-2.096,29.832C2.339,29.832,6.353,27.202,8.123,23.134L14.253,13.833L12.345,-29.832Z" /></g><g id="Group 24" transform="matrix(1,0,0,1,60.475,117.482)"><path fill="#ff8100" fill-opacity="1" d="M26.518,-49.562C21.396,-52.178,16.338,-52.77,10.82,-52.93C4.395,-53.117,-4.663,-54.016,-11.587,-53.28C-11.587,-53.28,-31.314,-51.819,-32.684,-38.299L-29.99,25.201L-34.507,52.105L28.715,54.016L28.262,22.273C29.043,5.758,27.376,-17.626,27.376,-17.626C28.349,-26.504,33.207,-30.501,33.897,-36.273C34.507,-41.377,31.095,-47.224,26.518,-49.562Z" /></g><g id="Group 23" transform="matrix(1,0,0,1,54.208,146.547)"><path fill="#263238" fill-opacity="1" d="M14.965,-2.951C14.986,-2.928,14.668,-2.599,14.035,-2.071C13.403,-1.541,12.434,-0.833,11.152,-0.095C8.612,1.388,4.653,2.875,0.1,2.955C-4.455,3.036,-8.463,1.69,-11.055,0.298C-12.362,-0.395,-13.355,-1.067,-14.005,-1.575C-14.656,-2.081,-14.985,-2.397,-14.965,-2.423C-14.902,-2.51,-13.503,-1.324,-10.882,-0.044C-8.286,1.239,-4.355,2.493,0.09,2.414C4.534,2.335,8.419,0.945,10.967,-0.43C13.541,-1.802,14.9,-3.036,14.965,-2.951Z" /></g><g id="Group 22" transform="matrix(1,0,0,1,29.066,110.372)"><path fill="#263238" fill-opacity="1" d="M-1.372,-30.464C-1.353,-30.464,-1.329,-30.251,-1.299,-29.845C-1.27,-29.381,-1.235,-28.794,-1.191,-28.071C-1.116,-26.457,-1.015,-24.244,-0.889,-21.542C-0.655,-15.964,-0.337,-8.38,0.014,-0.001C0.394,8.38,0.737,15.962,0.989,21.538C1.127,24.24,1.24,26.452,1.322,28.064C1.353,28.787,1.378,29.375,1.398,29.84C1.409,30.246,1.406,30.461,1.387,30.463C1.368,30.464,1.334,30.253,1.288,29.849C1.241,29.386,1.184,28.799,1.111,28.079C0.963,26.542,0.799,24.316,0.607,21.562C0.233,16.055,-0.173,8.439,-0.528,0.022C-0.884,-8.391,-1.13,-16.011,-1.271,-21.529C-1.326,-24.234,-1.371,-26.449,-1.403,-28.064C-1.405,-28.788,-1.407,-29.377,-1.409,-29.842C-1.404,-30.249,-1.391,-30.464,-1.372,-30.464Z" /></g><g id="Group 21" transform="matrix(1,0,0,1,13.466,106.809)"><path fill="#263238" fill-opacity="1" d="M10.269,-23.539C10.285,-23.53,10.21,-23.359,10.051,-23.043C9.859,-22.676,9.622,-22.225,9.334,-21.676C8.696,-20.498,7.748,-18.806,6.531,-16.742C4.131,-12.594,0.522,-7.039,-3.125,-0.724C-4.947,2.431,-6.494,5.555,-7.833,8.408C-9.16,11.257,-9.845,14.054,-9.671,16.421C-9.536,18.786,-8.835,20.624,-8.207,21.783C-7.58,22.956,-7.063,23.5,-7.108,23.535C-7.122,23.547,-7.253,23.416,-7.491,23.152C-7.72,22.882,-8.044,22.468,-8.39,21.887C-9.087,20.737,-9.864,18.875,-10.052,16.444C-10.285,14.011,-9.608,11.095,-8.288,8.204C-6.962,5.315,-5.429,2.184,-3.595,-0.992C0.067,-7.332,3.722,-12.846,6.203,-16.939C7.416,-18.932,8.414,-20.569,9.152,-21.781C9.475,-22.309,9.74,-22.744,9.956,-23.098C10.145,-23.396,10.252,-23.548,10.269,-23.539Z" /></g><g id="Group 18" transform="matrix(1,0,0,1,120.39,110.228)"><path fill="#263238" fill-opacity="1" d="M4.265,4.189C4.179,4.196,4.109,3.447,3.745,2.316C3.381,1.193,2.658,-0.314,1.405,-1.607C0.172,-2.916,-1.326,-3.712,-2.485,-3.736C-3.653,-3.795,-4.301,-3.328,-4.34,-3.409C-4.395,-3.439,-3.781,-4.074,-2.481,-4.119C-1.181,-4.196,0.505,-3.36,1.795,-1.982C3.123,-0.611,3.832,1.017,4.113,2.211C4.395,3.418,4.327,4.189,4.265,4.189Z" /></g><g id="Group 17" transform="matrix(1,0,0,1,85.065,93.302)"><path fill="#263238" fill-opacity="1" d="M-4.085,-22.993C-4.073,-22.979,-4.195,-22.839,-4.437,-22.587C-4.571,-22.449,-4.719,-22.297,-4.885,-22.126C-5.055,-21.922,-5.241,-21.697,-5.445,-21.451C-6.257,-20.423,-7.325,-18.798,-7.98,-16.533C-8.677,-14.292,-8.953,-11.442,-8.535,-8.365C-8.321,-6.827,-7.943,-5.23,-7.277,-3.685C-6.63,-2.123,-5.774,-0.574,-4.913,1.012C-1.331,7.3,2.355,12.742,5.022,16.669C6.343,18.568,7.429,20.129,8.234,21.286C8.998,22.373,9.429,22.968,9.396,22.994C9.381,23.006,9.256,22.871,9.029,22.604C8.803,22.337,8.472,21.939,8.065,21.412C7.242,20.367,6.093,18.822,4.708,16.888C1.956,13.01,-1.783,7.598,-5.385,1.277C-6.252,-0.322,-7.111,-1.878,-7.767,-3.48C-8.449,-5.081,-8.825,-6.725,-9.029,-8.299C-9.43,-11.453,-9.105,-14.367,-8.344,-16.646C-7.626,-18.951,-6.482,-20.584,-5.607,-21.586C-5.386,-21.824,-5.186,-22.041,-5.003,-22.238C-4.82,-22.396,-4.657,-22.537,-4.51,-22.665C-4.242,-22.894,-4.097,-23.007,-4.085,-22.993Z" /></g><g id="Group 16" transform="matrix(1,0,0,1,57.572,164.234)"><path fill="#263238" fill-opacity="1" d="M23.446,-1.999C23.452,-1.981,23.297,-1.915,22.999,-1.806C22.638,-1.681,22.206,-1.531,21.685,-1.351C21.114,-1.153,20.41,-0.927,19.581,-0.706C18.753,-0.479,17.817,-0.194,16.76,0.033C14.661,0.55,12.127,1.022,9.292,1.404C6.454,1.754,3.315,1.995,0.012,2.017C-3.291,2.014,-6.433,1.791,-9.273,1.457C-12.11,1.091,-14.648,0.633,-16.75,0.128C-17.808,-0.093,-18.746,-0.374,-19.575,-0.595C-20.406,-0.811,-21.111,-1.034,-21.683,-1.228C-22.204,-1.404,-22.638,-1.553,-23,-1.675C-23.299,-1.783,-23.452,-1.848,-23.447,-1.866C-23.441,-1.884,-23.276,-1.853,-22.967,-1.779C-22.598,-1.684,-22.156,-1.568,-21.623,-1.43C-21.044,-1.268,-20.333,-1.075,-19.498,-0.888C-18.666,-0.695,-17.726,-0.441,-16.668,-0.246C-14.566,0.209,-12.037,0.625,-9.216,0.962C-6.39,1.266,-3.27,1.473,0.01,1.475C3.289,1.454,6.407,1.23,9.23,0.909C12.049,0.557,14.575,0.127,16.674,-0.34C17.732,-0.542,18.671,-0.801,19.503,-0.998C20.336,-1.19,21.045,-1.387,21.624,-1.553C22.155,-1.694,22.598,-1.812,22.967,-1.909C23.275,-1.985,23.44,-2.017,23.446,-1.999Z" /></g><g id="Group 15" transform="matrix(1,0,0,1,27.98,105.293)"><path fill="#000000" fill-opacity="1" d="M-1.428,19.663L1.428,15.232L-0.062,-19.663L-1.428,19.663Z" /></g><g id="Group 14" transform="matrix(1,0,0,1,82.276,99.798)"><path fill="#000000" fill-opacity="1" d="M-6.413,-16.528C-6.413,-16.528,-6.32,-3.811,-3.381,1.226C-0.442,6.263,6.435,17.149,6.411,16.499C6.388,15.849,6.021,7.524,6.021,7.524C6.021,7.524,-6.353,-9.411,-6.413,-16.528Z" /></g><g id="Group 11" transform="matrix(1,0,0,1,52.635,90.194)"><path fill="#ffffff" fill-opacity="1" d="M23.462,-4.819C23.45,-4.768,22.775,-4.949,21.533,-5.051C20.293,-5.151,18.47,-5.108,16.305,-4.574C14.139,-4.059,11.657,-3.072,9.053,-1.674C6.433,-0.305,3.66,1.435,0.52,2.871C-2.611,4.336,-5.887,5.078,-8.872,5.263C-11.867,5.431,-14.568,5.079,-16.758,4.527C-18.955,3.987,-20.646,3.257,-21.768,2.686C-22.338,2.418,-22.752,2.154,-23.038,1.987C-23.322,1.816,-23.465,1.719,-23.456,1.703C-23.432,1.659,-22.824,1.998,-21.68,2.503C-20.541,3.013,-18.852,3.681,-16.674,4.169C-14.503,4.668,-11.843,4.974,-8.904,4.784C-5.97,4.574,-2.781,3.84,0.305,2.397C3.4,0.982,6.18,-0.743,8.831,-2.099C11.468,-3.485,14.008,-4.457,16.223,-4.934C18.438,-5.431,20.3,-5.416,21.552,-5.253C22.179,-5.17,22.661,-5.073,22.98,-4.978C23.3,-4.89,23.466,-4.837,23.462,-4.819Z" /></g><g id="Group 10" transform="matrix(1,0,0,1,59.273,117.209)"><path fill="#ffffff" fill-opacity="1" d="M29.115,2.764C29.12,2.781,28.922,2.847,28.538,2.956C28.152,3.051,27.594,3.254,26.845,3.377C25.364,3.704,23.165,3.951,20.45,3.885C17.733,3.83,14.52,3.36,11.029,2.561C7.536,1.761,3.771,0.616,-0.179,-0.546C-4.128,-1.698,-7.947,-2.597,-11.474,-3.054C-14.998,-3.496,-18.221,-3.53,-20.876,-3.13C-23.531,-2.744,-25.618,-2.07,-26.986,-1.449C-28.36,-0.843,-29.084,-0.419,-29.111,-0.467C-29.12,-0.483,-28.946,-0.596,-28.603,-0.8C-28.252,-0.986,-27.769,-1.338,-27.069,-1.633C-25.715,-2.317,-23.615,-3.057,-20.93,-3.494C-18.244,-3.947,-14.977,-3.952,-11.414,-3.531C-7.849,-3.096,-3.997,-2.203,-0.033,-1.046C3.923,0.118,7.673,1.272,11.138,2.093C14.602,2.912,17.777,3.415,20.464,3.516C23.148,3.629,25.328,3.441,26.809,3.178C28.291,2.926,29.102,2.714,29.115,2.764Z" /></g><g id="Group 9" transform="matrix(1,0,0,1,59.591,139.365)"><path fill="#ffffff" fill-opacity="1" d="M29.146,0.391C29.099,0.558,26.182,-1.326,20.827,-1.85C18.171,-2.139,14.973,-1.983,11.466,-1.527C7.957,-1.049,4.138,-0.246,0.104,0.511C-3.927,1.265,-7.791,1.928,-11.345,2.238C-14.896,2.557,-18.129,2.535,-20.809,2.175C-23.489,1.828,-25.609,1.238,-27.014,0.688C-27.729,0.449,-28.247,0.162,-28.611,0.009C-28.97,-0.158,-29.154,-0.254,-29.146,-0.27C-29.126,-0.317,-28.363,0.017,-26.947,0.496C-25.533,0.984,-23.421,1.513,-20.766,1.81C-18.11,2.119,-14.912,2.103,-11.389,1.76C-7.863,1.427,-4.02,0.752,0.009,-0.001C4.033,-0.756,7.866,-1.548,11.403,-2.003C14.939,-2.437,18.178,-2.557,20.866,-2.216C23.553,-1.894,25.672,-1.261,27.054,-0.655C27.763,-0.396,28.264,-0.079,28.623,0.088C28.974,0.272,29.154,0.375,29.146,0.391Z" /></g><g id="Group 8" transform="matrix(1,0,0,1,42.88,158.751)"><path fill="#ffffff" fill-opacity="1" d="M13.353,6.501C13.331,6.529,12.976,6.304,12.355,5.872C11.737,5.436,10.833,4.817,9.707,4.072C7.457,2.58,4.262,0.645,0.56,-1.16C-3.147,-2.959,-6.641,-4.277,-9.205,-5.126C-10.486,-5.553,-11.53,-5.882,-12.254,-6.099C-12.978,-6.32,-13.375,-6.46,-13.366,-6.495C-13.357,-6.53,-12.944,-6.457,-12.202,-6.295C-11.46,-6.138,-10.397,-5.861,-9.094,-5.478C-6.49,-4.714,-2.946,-3.44,0.788,-1.628C4.517,0.19,7.707,2.19,9.915,3.769C11.021,4.557,11.895,5.223,12.477,5.71C13.062,6.192,13.375,6.473,13.353,6.501Z" /></g><g id="Group 7" transform="matrix(1,0,0,1,79.369,165.634)"><path fill="#ffffff" fill-opacity="1" d="M7.648,-0.721C7.675,-0.673,6.919,-0.17,5.547,0.333C4.182,0.838,2.174,1.271,-0.065,1.206C-2.304,1.133,-4.281,0.577,-5.613,-0.011C-6.951,-0.598,-7.675,-1.147,-7.644,-1.193C-7.601,-1.27,-6.818,-0.839,-5.477,-0.354C-4.141,0.134,-2.218,0.614,-0.049,0.685C2.12,0.748,4.069,0.387,5.433,-0.018C6.801,-0.418,7.609,-0.8,7.648,-0.721Z" /></g><g id="Group 4" transform="matrix(1,0,0,1,57.53,67.006)"><path fill="#ffffff" fill-opacity="1" d="M19.837,-2.453C19.85,-2.42,19.334,-2.189,18.386,-1.801C17.442,-1.402,16.045,-0.901,14.296,-0.355C12.548,0.199,10.431,0.742,8.055,1.228C5.674,1.688,3.032,2.075,0.24,2.289C-2.554,2.485,-5.226,2.487,-7.648,2.38C-10.07,2.247,-12.244,2.019,-14.053,1.725C-15.863,1.44,-17.319,1.149,-18.311,0.892C-19.305,0.646,-19.849,0.494,-19.84,0.459C-19.832,0.424,-19.273,0.509,-18.269,0.694C-17.268,0.889,-15.809,1.124,-14.002,1.36C-12.196,1.606,-10.033,1.795,-7.627,1.901C-5.221,1.981,-2.57,1.964,0.202,1.77C2.973,1.557,5.595,1.187,7.964,0.756C10.328,0.3,12.441,-0.202,14.191,-0.708C15.944,-1.206,17.353,-1.652,18.316,-1.991C19.282,-2.32,19.824,-2.487,19.837,-2.453Z" /></g><g id="Group 1" transform="matrix(1,0,0,1,56.498,162.553)"><path fill="#000000" fill-opacity="1" d="M21.445,0.471C22.49,-0.001,22.8,-1.426,22.145,-2.252C21.49,-3.076,20.317,-3.259,19.264,-3.239C14.099,-3.137,9.591,0.32,4.509,1.248C0.643,1.955,-3.342,1.158,-7.102,0.018C-10.863,-1.124,-14.533,-2.613,-18.394,-3.342C-19.202,-3.495,-20.044,-3.612,-20.837,-3.397C-21.63,-3.183,-22.365,-2.557,-22.465,-1.742C-22.565,-0.926,-22.372,-0.323,-21.157,0.093C-21.157,0.093,-8.367,3.648,0.893,3.51C10.716,3.365,21.445,0.471,21.445,0.471Z" /></g></g><g transform="matrix(1,0,0,1,336.412,292.399)" id="Plant Outlines"><g id="Group 43" transform="matrix(1,0,0,1,70.401,136.165)"><path fill="#263238" fill-opacity="1" d="M-34.881,4.792L34.881,4.792L34.881,-4.793L-34.881,-4.793L-34.881,4.792Z" /></g><g id="Group 42" transform="matrix(1,0,0,1,70.401,136.164)"><path fill="#263238" fill-opacity="1" d="M-34.761,4.674L34.76,4.674L34.76,-4.673L-34.761,-4.673L-34.761,4.674ZM34.999,4.912L-34.999,4.912L-34.999,-4.912L34.999,-4.912L34.999,4.912Z" /></g><g id="Group 41" transform="matrix(1,0,0,1,70.439,162.535)"><path fill="#263238" fill-opacity="1" d="M-28.451,-24.769L-18.409,24.769L18.744,24.769L28.451,-21.579L-28.451,-24.769Z" /></g><g id="Group 40" transform="matrix(1,0,0,1,70.439,186.301)"><path fill="#455a64" fill-opacity="1" d="M-28.451,-3.682L-23.096,3.682L22.065,3.682L28.451,-3.682L-28.451,-3.682Z" /></g><g id="Group 39" transform="matrix(1,0,0,1,67.637,87.957)"><path fill="#263238" fill-opacity="1" d="M0.145,51.257C0.007,51.257,-0.168,28.307,-0.248,0.003C-0.328,-28.31,-0.281,-51.257,-0.144,-51.257C-0.006,-51.257,0.168,-28.312,0.248,0.001C0.328,28.305,0.282,51.256,0.145,51.257Z" /></g><g id="Group 38" transform="matrix(1,0,0,1,80.003,108.971)"><path fill="#263238" fill-opacity="1" d="M3.318,-27.189C3.334,-27.181,3.268,-26.998,3.13,-26.655C2.967,-26.266,2.76,-25.774,2.507,-25.169C2.369,-24.842,2.216,-24.486,2.052,-24.1C1.909,-23.696,1.755,-23.261,1.589,-22.797C1.421,-22.329,1.24,-21.83,1.05,-21.303C0.864,-20.773,0.717,-20.196,0.534,-19.599C-0.228,-17.221,-0.832,-14.304,-1.415,-11.058C-1.923,-7.796,-2.305,-4.184,-2.497,-0.377C-2.836,7.245,-2.405,14.156,-1.945,19.134C-1.72,21.624,-1.495,23.637,-1.329,25.027C-1.258,25.678,-1.2,26.209,-1.154,26.629C-1.119,26.997,-1.109,27.191,-1.125,27.194C-1.143,27.196,-1.185,27.007,-1.251,26.645C-1.323,26.228,-1.412,25.7,-1.521,25.053C-1.746,23.67,-2.026,21.661,-2.295,19.169C-2.846,14.19,-3.333,7.257,-2.993,-0.401C-2.8,-4.225,-2.403,-7.857,-1.868,-11.133C-1.256,-14.395,-0.611,-17.322,0.198,-19.703C0.393,-20.299,0.553,-20.877,0.753,-21.406C0.956,-21.931,1.147,-22.428,1.328,-22.896C1.508,-23.357,1.677,-23.789,1.835,-24.19C2.006,-24.581,2.181,-24.93,2.331,-25.248C2.619,-25.837,2.854,-26.318,3.04,-26.699C3.208,-27.028,3.303,-27.197,3.318,-27.189Z" /></g><g id="Group 37" transform="matrix(1,0,0,1,77.016,101.386)"><path fill="#263238" fill-opacity="1" d="M4.521,-38.165C4.538,-38.159,4.459,-37.898,4.298,-37.408C4.118,-36.877,3.875,-36.167,3.572,-35.274C3.411,-34.808,3.232,-34.295,3.039,-33.736C2.865,-33.164,2.678,-32.546,2.477,-31.883C2.07,-30.556,1.596,-29.046,1.176,-27.349C0.953,-26.502,0.72,-25.616,0.477,-24.695C0.267,-23.764,0.048,-22.795,-0.177,-21.793C-0.666,-19.796,-1.016,-17.626,-1.466,-15.359C-2.235,-10.801,-2.913,-5.762,-3.379,-0.447C-3.82,4.872,-4.011,9.955,-4.079,14.579C-4.092,19.203,-4.035,23.37,-3.845,26.864C-3.784,28.612,-3.671,30.189,-3.581,31.577C-3.501,32.965,-3.414,34.158,-3.326,35.133C-3.253,36.073,-3.197,36.823,-3.155,37.382C-3.121,37.897,-3.112,38.168,-3.128,38.17C-3.145,38.172,-3.188,37.904,-3.254,37.393C-3.32,36.835,-3.408,36.089,-3.518,35.152C-3.636,34.18,-3.751,32.985,-3.858,31.598C-3.975,30.211,-4.111,28.633,-4.195,26.882C-4.43,23.385,-4.526,19.211,-4.538,14.576C-4.495,9.941,-4.316,4.844,-3.875,-0.49C-3.406,-5.819,-2.713,-10.872,-1.917,-15.439C-1.454,-17.711,-1.085,-19.885,-0.579,-21.884C-0.342,-22.887,-0.116,-23.855,0.104,-24.788C0.359,-25.71,0.603,-26.595,0.837,-27.441C1.28,-29.138,1.779,-30.644,2.212,-31.968C2.427,-32.627,2.628,-33.242,2.814,-33.812C3.023,-34.366,3.216,-34.876,3.391,-35.339C3.732,-36.22,4.003,-36.92,4.206,-37.444C4.397,-37.923,4.505,-38.171,4.521,-38.165Z" /></g><g id="Group 36" transform="matrix(1,0,0,1,56.725,91.538)"><path fill="#263238" fill-opacity="1" d="M6.644,51.735C6.635,51.736,6.622,51.645,6.604,51.466C6.587,51.26,6.564,51.001,6.538,50.677C6.488,49.946,6.42,48.929,6.333,47.638C6.165,44.961,5.926,41.151,5.632,36.46C5.027,27.022,4.151,13.985,2.563,-0.353C1.752,-7.521,0.812,-14.329,-0.167,-20.502C-0.686,-23.583,-1.158,-26.515,-1.693,-29.243C-2.184,-31.978,-2.713,-34.512,-3.201,-36.825C-3.659,-39.143,-4.17,-41.219,-4.581,-43.051C-4.985,-44.885,-5.376,-46.454,-5.702,-47.736C-6.009,-48.992,-6.252,-49.981,-6.426,-50.693C-6.499,-51.009,-6.558,-51.264,-6.604,-51.465C-6.641,-51.64,-6.655,-51.731,-6.646,-51.734C-6.638,-51.736,-6.608,-51.65,-6.554,-51.479C-6.497,-51.281,-6.422,-51.031,-6.331,-50.719C-6.134,-50.013,-5.862,-49.031,-5.515,-47.784C-5.16,-46.509,-4.741,-44.946,-4.311,-43.117C-3.874,-41.288,-3.336,-39.215,-2.856,-36.899C-2.347,-34.588,-1.798,-32.055,-1.29,-29.319C-0.736,-26.592,-0.248,-23.659,0.286,-20.576C1.29,-14.399,2.245,-7.584,3.057,-0.408C4.647,13.945,5.467,26.995,5.984,36.438C6.24,41.162,6.418,44.985,6.525,47.628C6.573,48.922,6.611,49.94,6.637,50.673C6.644,50.997,6.65,51.257,6.654,51.464C6.655,51.643,6.652,51.735,6.644,51.735Z" /></g><g id="Group 4" transform="matrix(1,0,0,1,70.401,140.916)"><path fill="#455a64" fill-opacity="1" d="M34.995,0.001C34.995,0.138,19.326,0.248,0.001,0.248C-19.33,0.248,-34.995,0.138,-34.995,0.001C-34.995,-0.137,-19.33,-0.248,0.001,-0.248C19.326,-0.248,34.995,-0.137,34.995,0.001Z" /></g><g id="Group 3" transform="matrix(1,0,0,1,70.916,161.081)"><path fill="#455a64" fill-opacity="1" d="M23.579,-0.001C23.579,0.137,13.021,0.248,0.001,0.248C-13.025,0.248,-23.579,0.137,-23.579,-0.001C-23.579,-0.138,-13.025,-0.249,0.001,-0.249C13.021,-0.249,23.579,-0.138,23.579,-0.001Z" /></g><g id="Group 2" transform="matrix(1,0,0,1,71.327,163.964)"><path fill="#455a64" fill-opacity="1" d="M23.58,0.001C23.58,0.138,13.022,0.249,0.002,0.249C-13.024,0.249,-23.58,0.138,-23.58,0.001C-23.58,-0.137,-13.024,-0.248,0.002,-0.248C13.022,-0.248,23.58,-0.137,23.58,0.001Z" /></g><g id="Group 1" transform="matrix(1,0,0,1,70.517,158.705)"><path fill="#455a64" fill-opacity="1" d="M24.39,-0.001C24.39,0.137,13.469,0.248,0.001,0.248C-13.471,0.248,-24.39,0.137,-24.39,-0.001C-24.39,-0.139,-13.471,-0.249,0.001,-0.249C13.469,-0.249,24.39,-0.139,24.39,-0.001Z" /></g></g><g id="leave 1"><g transform="translate(421,376.5)"><g transform="rotate(-5)"><animateTransform repeatCount="indefinite" type="rotate" attributeName="transform" dur="6.68s" begin="0.48s" calcMode="spline" values="-5; 12; 1; -5; 12; 1; -5; 12; -5" keyTimes="0; 0.144; 0.269; 0.365; 0.509; 0.635; 0.731; 0.874; 1" keySplines="0 0 1 1; 0 0 1 1; 0 0 1 1; 0 0 1 1; 0 0 1 1; 0 0 1 1; 0 0 1 1; 0 0 1 1" fill="freeze" /><g transform="scale(1,1) translate(-86.5,-80)"><g id="Group 10" transform="matrix(1,0,0,1,97.586,101.647)"><path fill="#fba425" fill-opacity="1" d="M-11.046,-21.187C-14.616,-22.129,-18.873,-18.657,-19.609,-15.038C-20.345,-11.418,-18.987,-7.717,-17.399,-4.383C-13.881,2.998,-9.026,9.841,-2.633,14.937C3.762,20.032,11.769,23.291,19.945,23.249C18.435,16.237,20.345,8.912,19.503,1.79C18.768,-4.427,15.87,-10.367,11.421,-14.772C6.973,-19.176,1.004,-22.015,-5.22,-22.688C-7.499,-22.934,-10.137,-23.291,-11.046,-21.187Z" /></g><g id="Group 9" transform="matrix(1,0,0,1,102.042,102.679)"><path fill="#263238" fill-opacity="1" d="M15.49,22.216C15.481,22.231,15.307,22.15,14.981,21.98C14.659,21.804,14.193,21.52,13.645,21.083C12.524,20.232,11.24,18.592,10.119,16.367C9.55,15.262,8.914,14.062,8.292,12.734C7.689,11.4,7.048,9.98,6.372,8.488C5.691,7,4.942,5.454,4.011,3.947C3.086,2.439,1.983,0.964,0.761,-0.471C-1.683,-3.342,-4.305,-5.826,-6.579,-8.2C-8.864,-10.563,-10.787,-12.841,-12.176,-14.916C-13.579,-16.982,-14.429,-18.834,-14.911,-20.139C-15.142,-20.798,-15.308,-21.313,-15.39,-21.671C-15.48,-22.026,-15.519,-22.215,-15.502,-22.22C-15.455,-22.232,-15.252,-21.49,-14.732,-20.21C-14.197,-18.937,-13.311,-17.134,-11.887,-15.114C-10.475,-13.087,-8.545,-10.855,-6.251,-8.518C-3.968,-6.171,-1.329,-3.693,1.14,-0.792C2.374,0.657,3.489,2.155,4.426,3.695C5.367,5.232,6.115,6.799,6.788,8.298C7.448,9.797,8.077,11.223,8.666,12.561C9.265,13.884,9.886,15.096,10.432,16.206C11.508,18.437,12.709,20.053,13.77,20.936C14.813,21.835,15.519,22.168,15.49,22.216Z" /></g><g id="Group 8" transform="matrix(1,0,0,1,101.303,111.128)"><path fill="#263238" fill-opacity="1" d="M-2.237,7.94C-2.301,7.927,-2.189,7.007,-1.909,5.537C-1.63,4.066,-1.171,2.047,-0.552,-0.152C0.068,-2.351,0.731,-4.313,1.259,-5.712C1.788,-7.114,2.172,-7.956,2.235,-7.934C2.301,-7.909,2.034,-7.024,1.592,-5.599C1.15,-4.174,0.543,-2.206,-0.074,-0.017C-0.69,2.172,-1.2,4.167,-1.566,5.613C-1.933,7.059,-2.167,7.955,-2.237,7.94Z" /></g><g id="Group 7" transform="matrix(1,0,0,1,108.287,99.929)"><path fill="#263238" fill-opacity="1" d="M8.567,1.93C8.546,1.998,7.589,1.754,6.051,1.352C4.513,0.95,2.388,0.4,0.025,-0.133C-2.34,-0.665,-4.496,-1.081,-6.058,-1.377C-7.62,-1.672,-8.587,-1.861,-8.578,-1.932C-8.569,-1.998,-7.583,-1.931,-6.001,-1.723C-4.42,-1.515,-2.244,-1.153,0.133,-0.618C2.51,-0.082,4.631,0.525,6.15,1.014C7.668,1.504,8.587,1.868,8.567,1.93Z" /></g><g id="Group 6" transform="matrix(1,0,0,1,88.231,97.607)"><path fill="#263238" fill-opacity="1" d="M-2.415,9.251C-2.48,9.238,-2.343,8.175,-2.029,6.47C-1.715,4.766,-1.215,2.422,-0.548,-0.139C0.121,-2.699,0.831,-4.988,1.39,-6.629C1.949,-8.27,2.35,-9.265,2.412,-9.244C2.48,-9.222,2.198,-8.187,1.726,-6.524C1.253,-4.86,0.6,-2.564,-0.066,-0.013C-0.731,2.538,-1.284,4.86,-1.686,6.542C-2.086,8.225,-2.346,9.265,-2.415,9.251Z" /></g><g id="Group 5" transform="matrix(1,0,0,1,98.733,85.807)"><path fill="#263238" fill-opacity="1" d="M9.929,1.052C9.915,1.189,5.457,0.828,-0.026,0.247C-5.51,-0.335,-9.944,-0.917,-9.929,-1.053C-9.915,-1.189,-5.459,-0.829,0.027,-0.248C5.51,0.334,9.944,0.916,9.929,1.052Z" /></g></g></g></g></g><g id="leave 2"><g transform="translate(414,366.5)"><g transform="rotate(0)"><animateTransform repeatCount="indefinite" type="rotate" attributeName="transform" dur="7.24s" begin="0.12s" calcMode="spline" values="0; 15; -7; 15; -7; 15; -7; 0" keyTimes="0; 0.127; 0.227; 0.359; 0.486; 0.663; 0.823; 1" keySplines="0 0 1 1; 0 0 1 1; 0 0 1 1; 0 0 1 1; 0 0 1 1; 0 0 1 1; 0 0 1 1" fill="freeze" /><g transform="scale(1,1) translate(-80,-65)"><g id="Group 16" transform="matrix(1,0,0,1,108.476,50.459)"><path fill="#fba425" fill-opacity="1" d="M-27.447,14.097L-23.705,13.787C-21.048,13.567,-18.468,12.781,-16.145,11.473C-14.997,10.826,-13.843,10.194,-12.622,9.703C-7.993,7.845,-2.829,8.178,2.152,7.928C10.282,7.52,18.326,5.464,25.654,1.918C26.077,1.713,26.451,1.401,26.678,0.989C27.447,-0.412,26.02,-1.659,24.79,-2.417C18.484,-6.302,12.064,-10.238,4.911,-12.168C-2.241,-14.097,-10.361,-13.77,-16.464,-9.571C-23.628,-4.641,-26.237,5.486,-27.447,14.097Z" /></g><g id="Group 15" transform="matrix(1,0,0,1,108.171,52.531)"><path fill="#263238" fill-opacity="1" d="M27.068,-1.544C27.06,-1.528,26.841,-1.631,26.433,-1.839C25.985,-2.074,25.394,-2.383,24.658,-2.769C23.119,-3.578,20.905,-4.773,18.105,-6.115C15.304,-7.442,11.909,-8.941,7.96,-10.024C4.027,-11.117,-0.509,-11.69,-5.188,-11.09C-9.847,-10.476,-14.137,-8.663,-17.174,-5.942C-20.231,-3.231,-22.097,0.043,-23.415,2.825C-24.731,5.631,-25.541,8.018,-26.131,9.65C-26.408,10.434,-26.63,11.06,-26.798,11.538C-26.954,11.969,-27.043,12.193,-27.059,12.188C-27.076,12.183,-27.018,11.949,-26.893,11.508C-26.746,11.022,-26.555,10.385,-26.316,9.59C-25.782,7.935,-25.02,5.525,-23.735,2.678C-22.446,-0.145,-20.59,-3.489,-17.479,-6.286C-14.384,-9.093,-9.994,-10.96,-5.252,-11.583C-0.494,-12.193,4.117,-11.595,8.083,-10.466C12.067,-9.347,15.466,-7.804,18.258,-6.431C21.048,-5.043,23.241,-3.8,24.753,-2.939C25.469,-2.519,26.044,-2.183,26.481,-1.927C26.874,-1.69,27.077,-1.559,27.068,-1.544Z" /></g><g id="Group 14" transform="matrix(1,0,0,1,115.452,48.538)"><path fill="#263238" fill-opacity="1" d="M10.796,7.279C10.719,7.393,5.823,4.225,-0.139,0.206C-6.102,-3.816,-10.873,-7.166,-10.797,-7.281C-10.72,-7.394,-5.824,-4.228,0.139,-0.206C6.101,3.813,10.873,7.166,10.796,7.279Z" /></g><g id="Group 13" transform="matrix(1,0,0,1,117.697,41.203)"><path fill="#263238" fill-opacity="1" d="M3.848,-0.415C3.874,-0.284,2.175,0.158,0.027,0.353C-2.123,0.554,-3.874,0.43,-3.872,0.297C-3.872,0.155,-2.14,0.055,-0.019,-0.143C2.103,-0.335,3.822,-0.554,3.848,-0.415Z" /></g><g id="Group 12" transform="matrix(1,0,0,1,97.772,39.942)"><path fill="#263238" fill-opacity="1" d="M1.821,-3.086C1.939,-3.017,1.218,-1.577,0.214,0.126C-0.792,1.831,-1.702,3.155,-1.821,3.085C-1.939,3.016,-1.22,1.578,-0.214,-0.126C0.791,-1.83,1.703,-3.156,1.821,-3.086Z" /></g><g id="Group 11" transform="matrix(1,0,0,1,96.529,53.437)"><path fill="#263238" fill-opacity="1" d="M7.45,5.265C7.416,5.321,6.509,4.845,5.094,3.987C3.679,3.129,1.767,1.87,-0.275,0.388C-2.317,-1.095,-4.117,-2.497,-5.411,-3.523C-6.704,-4.551,-7.487,-5.212,-7.445,-5.267C-7.404,-5.322,-6.548,-4.761,-5.2,-3.805C-3.732,-2.738,-1.951,-1.445,0.017,-0.014C2.053,1.463,3.923,2.76,5.284,3.692C6.645,4.622,7.487,5.203,7.45,5.265Z" /></g></g></g></g></g><g id="leave 3"><g transform="translate(401.25,353)"><g transform="rotate(0)"><animateTransform repeatCount="indefinite" type="rotate" attributeName="transform" dur="7.28s" begin="0.12s" calcMode="spline" values="0; -6; 15; 0" keyTimes="0; 0.286; 0.582; 1" keySplines="0 0 1 1; 0 0 1 1; 0 0 1 1" fill="freeze" /><g transform="scale(1,1) translate(-67.02,-46.534)"><g id="Group 35" transform="matrix(1,0,0,1,61.421,72.039)"><path fill="#fba425" fill-opacity="1" d="M5.791,-24.305C5.488,-27.557,2.202,-30.009,-1.063,-30.043C-4.328,-30.076,-7.371,-28.118,-9.368,-25.535C-11.365,-22.951,-12.467,-19.797,-13.367,-16.659C-15.566,-8.999,-16.769,-0.951,-15.828,6.963C-14.889,14.876,-11.678,22.667,-5.999,28.258C-5.076,29.167,-3.88,30.076,-2.612,29.805C-1.92,29.658,-1.352,29.177,-0.826,28.702C10.329,18.625,16.77,3.532,16.329,-11.494C16.241,-14.503,15.846,-17.635,14.18,-20.143C12.513,-22.65,8.628,-25.312,5.791,-24.305Z" /></g><g id="Group 21" transform="matrix(1,0,0,1,61.974,75.187)"><path fill="#263238" fill-opacity="1" d="M-4.773,27.344C-4.791,27.344,-4.81,27.15,-4.833,26.777C-4.852,26.351,-4.877,25.811,-4.906,25.148C-4.968,23.733,-4.983,21.682,-4.929,19.149C-4.884,16.615,-4.715,13.601,-4.418,10.263C-4.094,6.928,-3.627,3.271,-2.958,-0.539C-2.27,-4.347,-1.446,-7.942,-0.597,-11.184C0.276,-14.42,1.159,-17.307,1.991,-19.701C2.816,-22.095,3.537,-24.015,4.084,-25.322C4.341,-25.934,4.55,-26.432,4.715,-26.826C4.865,-27.168,4.951,-27.344,4.966,-27.338C4.983,-27.331,4.927,-27.142,4.808,-26.789C4.666,-26.386,4.486,-25.879,4.265,-25.253C3.774,-23.927,3.104,-21.993,2.325,-19.59C1.537,-17.188,0.691,-14.3,-0.154,-11.068C-0.976,-7.831,-1.784,-4.246,-2.468,-0.452C-3.135,3.344,-3.615,6.986,-3.961,10.307C-4.284,13.631,-4.488,16.634,-4.578,19.159C-4.676,21.685,-4.715,23.731,-4.712,25.145C-4.72,25.809,-4.727,26.348,-4.733,26.775C-4.743,27.148,-4.756,27.343,-4.773,27.344Z" /></g><g id="Group 20" transform="matrix(1,0,0,1,53.104,79.743)"><path fill="#263238" fill-opacity="1" d="M6.284,-5.511C6.33,-5.462,5.703,-4.765,4.63,-3.695C3.556,-2.625,2.033,-1.189,0.295,0.336C-1.445,1.86,-3.069,3.183,-4.27,4.106C-5.471,5.031,-6.244,5.561,-6.286,5.51C-6.33,5.454,-5.634,4.827,-4.492,3.835C-3.218,2.728,-1.705,1.415,-0.033,-0.037C1.625,-1.505,3.125,-2.832,4.388,-3.951C5.521,-4.953,6.235,-5.561,6.284,-5.511Z" /></g><g id="Group 19" transform="matrix(1,0,0,1,66.657,76.384)"><path fill="#263238" fill-opacity="1" d="M5.86,8.424C5.8,8.462,5.142,7.519,4.097,5.984C2.964,4.329,1.555,2.275,-0.001,0.002C-1.591,-2.248,-3.029,-4.282,-4.186,-5.921C-5.262,-7.433,-5.916,-8.378,-5.861,-8.421C-5.808,-8.462,-5.053,-7.593,-3.904,-6.131C-2.753,-4.67,-1.215,-2.611,0.407,-0.281C2.027,2.048,3.422,4.206,4.393,5.793C5.364,7.379,5.917,8.389,5.86,8.424Z" /></g><g id="Group 18" transform="matrix(1,0,0,1,55.765,57.898)"><path fill="#263238" fill-opacity="1" d="M9.874,-6.349C9.948,-6.233,5.587,-3.297,0.135,0.208C-5.319,3.714,-9.8,6.464,-9.874,6.348C-9.948,6.232,-5.588,3.297,-0.134,-0.21C5.318,-3.715,9.8,-6.464,9.874,-6.349Z" /></g><g id="Group 17" transform="matrix(1,0,0,1,71.513,58.549)"><path fill="#263238" fill-opacity="1" d="M6.422,6.273C6.326,6.371,3.373,3.643,-0.174,0.178C-3.722,-3.287,-6.518,-6.175,-6.423,-6.274C-6.327,-6.372,-3.374,-3.643,0.174,-0.178C3.72,3.287,6.518,6.174,6.422,6.273Z" /></g></g></g></g></g><g id="leave 4"><g transform="translate(386,336)"><g transform="rotate(0)"><animateTransform repeatCount="indefinite" type="rotate" attributeName="transform" dur="7.12s" begin="0s" calcMode="spline" values="0; 19; -3; 0" keyTimes="0; 0.326; 0.596; 1" keySplines="0 0 1 1; 0 0 1 1; 0 0 1 1" fill="freeze" /><g transform="scale(1,1) translate(-46,-40)"><g id="Group 27" transform="matrix(1,0,0,1,25.299,57.465)"><path fill="#fba425" fill-opacity="1" d="M23.07,-17.428C19.503,-20.133,15.73,-20.664,11.257,-20.488C6.785,-20.31,2.43,-18.948,-1.67,-17.152C-8.663,-14.088,-15.238,-9.574,-19.416,-3.184C-23.595,3.206,-25.049,11.665,-21.92,18.63C-21.609,19.324,-21.203,20.05,-20.504,20.348C-19.768,20.664,-18.925,20.418,-18.163,20.169C-10.209,17.574,-2.199,14.955,5.115,10.891C12.428,6.828,19.086,1.179,23.01,-6.21C23.952,-7.983,24.74,-9.882,24.894,-11.884C25.049,-13.886,24.495,-16.014,23.07,-17.428Z" /></g><g id="Group 26" transform="matrix(1,0,0,1,26.436,58.548)"><path fill="#263238" fill-opacity="1" d="M22.004,-19.349C22.009,-19.332,21.812,-19.253,21.432,-19.117C21.001,-18.968,20.448,-18.778,19.765,-18.542C19.397,-18.419,18.994,-18.287,18.558,-18.141C18.12,-17.984,17.654,-17.786,17.148,-17.59C16.142,-17.183,14.974,-16.777,13.743,-16.18C13.12,-15.896,12.469,-15.601,11.792,-15.292C11.115,-14.98,10.441,-14.596,9.727,-14.232C8.284,-13.524,6.826,-12.619,5.273,-11.702C2.223,-9.774,-1.005,-7.453,-4.145,-4.717C-7.261,-1.949,-9.975,0.958,-12.275,3.737C-13.383,5.162,-14.466,6.494,-15.352,7.834C-15.805,8.496,-16.272,9.117,-16.669,9.748C-17.06,10.381,-17.437,10.988,-17.798,11.569C-18.547,12.714,-19.099,13.821,-19.63,14.766C-19.889,15.244,-20.142,15.681,-20.354,16.095C-20.555,16.509,-20.738,16.891,-20.907,17.241C-21.227,17.889,-21.486,18.413,-21.688,18.821C-21.872,19.18,-21.976,19.366,-21.992,19.359C-22.009,19.352,-21.935,19.153,-21.781,18.781C-21.601,18.362,-21.368,17.824,-21.082,17.159C-20.925,16.802,-20.753,16.413,-20.566,15.99C-20.367,15.569,-20.124,15.123,-19.877,14.637C-19.365,13.675,-18.833,12.55,-18.1,11.389C-17.746,10.799,-17.375,10.182,-16.99,9.541C-16.6,8.9,-16.14,8.271,-15.691,7.599C-14.814,6.241,-13.736,4.891,-12.631,3.45C-10.335,0.635,-7.611,-2.302,-4.475,-5.09C-1.31,-7.846,1.948,-10.171,5.032,-12.09C6.603,-13.003,8.078,-13.901,9.537,-14.598C10.26,-14.956,10.943,-15.333,11.628,-15.639C12.314,-15.939,12.973,-16.227,13.603,-16.502C14.849,-17.082,16.03,-17.468,17.051,-17.852C17.564,-18.037,18.037,-18.22,18.481,-18.365C18.924,-18.495,19.332,-18.617,19.705,-18.727C20.402,-18.926,20.965,-19.087,21.403,-19.212C21.793,-19.318,21.999,-19.366,22.004,-19.349Z" /></g><g id="Group 25" transform="matrix(1,0,0,1,11.825,56.846)"><path fill="#263238" fill-opacity="1" d="M8.747,-2.558C8.786,-2.426,4.9,-1.174,0.07,0.238C-4.761,1.651,-8.708,2.689,-8.746,2.557C-8.785,2.425,-4.9,1.173,-0.068,-0.239C4.762,-1.651,8.709,-2.689,8.747,-2.558Z" /></g><g id="Group 24" transform="matrix(1,0,0,1,20.386,64.21)"><path fill="#263238" fill-opacity="1" d="M-0.171,9.226C-0.238,9.227,-0.317,8.194,-0.361,6.522C-0.407,4.851,-0.415,2.54,-0.344,-0.01C-0.273,-2.561,-0.136,-4.868,0.003,-6.535C0.142,-8.201,0.277,-9.227,0.345,-9.223C0.415,-9.218,0.403,-8.183,0.354,-6.514C0.298,-4.683,0.228,-2.458,0.153,0.003C0.092,2.464,0.035,4.691,-0.011,6.522C-0.055,8.192,-0.101,9.225,-0.171,9.226Z" /></g><g id="Group 23" transform="matrix(1,0,0,1,35.891,54.577)"><path fill="#263238" fill-opacity="1" d="M0.726,10.503C0.589,10.513,0.153,5.817,-0.248,0.018C-0.649,-5.784,-0.863,-10.493,-0.726,-10.503C-0.589,-10.513,-0.154,-5.818,0.247,-0.017C0.649,5.783,0.863,10.493,0.726,10.503Z" /></g><g id="Group 22" transform="matrix(1,0,0,1,25.667,43.932)"><path fill="#263238" fill-opacity="1" d="M-9.467,-0.314C-9.464,-0.382,-8.402,-0.409,-6.687,-0.398C-4.972,-0.385,-2.604,-0.335,0.01,-0.249C2.624,-0.163,4.988,-0.056,6.701,0.045C8.413,0.147,9.471,0.244,9.469,0.313C9.469,0.381,8.408,0.409,6.693,0.397C4.978,0.385,2.609,0.334,-0.007,0.248C-2.622,0.162,-4.989,0.055,-6.701,-0.046C-8.413,-0.148,-9.471,-0.245,-9.467,-0.314Z" /></g></g></g></g></g><g id="leave 5"><g transform="translate(402.75,328.25)"><g transform="rotate(0)"><animateTransform repeatCount="indefinite" type="rotate" attributeName="transform" dur="7.24s" begin="0s" calcMode="spline" values="0; 10; -11; 10; 0" keyTimes="0; 0.381; 0.641; 0.856; 1" keySplines="0 0 1 1; 0 0 1 1; 0 0 1 1; 0 0 1 1" fill="freeze" /><g transform="scale(1,1) translate(-67,-32)"><g id="Group 34" transform="matrix(1,0,0,1,33.939,20.131)"><path fill="#fba425" fill-opacity="1" d="M8.891,1.561C7.358,4.337,5.826,7.114,4.292,9.89C4.185,10.083,4.043,10.301,3.822,10.32C3.58,10.339,3.4,10.112,3.268,9.909C-0.786,3.688,-4.838,-2.532,-8.891,-8.752L-6.089,-10.339L8.891,1.561Z" /></g><g id="Group 33" transform="matrix(1,0,0,1,33.939,20.122)"><path fill="#000000" fill-opacity="1" d="M8.891,1.57C7.358,4.346,5.826,7.123,4.292,9.899C4.185,10.092,4.043,10.31,3.822,10.329C3.58,10.348,3.4,10.121,3.268,9.918C-0.786,3.697,-4.838,-2.523,-8.891,-8.743L-6.089,-10.33L8.891,1.57Z" /></g><g id="Group 32" transform="matrix(1,0,0,1,48.462,18.475)"><path fill="#fba425" fill-opacity="1" d="M19.03,18.225C5.206,10.068,-8.619,1.91,-22.445,-6.249C-22.867,-6.499,-23.326,-6.794,-23.454,-7.267C-23.62,-7.88,-23.158,-8.472,-22.716,-8.929C-17.012,-14.814,-8.726,-18.225,-0.552,-17.637C7.623,-17.048,15.484,-12.327,19.486,-5.174C23.489,1.978,23.621,11.436,19.03,18.225Z" /></g><g id="Group 31" transform="matrix(1,0,0,1,49.908,20.527)"><path fill="#263238" fill-opacity="1" d="M-17.913,-16.113C-17.914,-16.13,-17.727,-16.152,-17.37,-16.18C-17.012,-16.198,-16.484,-16.262,-15.803,-16.256C-14.439,-16.289,-12.458,-16.2,-10.048,-15.799C-7.639,-15.403,-4.81,-14.628,-1.852,-13.309C1.102,-11.997,4.159,-10.097,6.944,-7.601C9.706,-5.078,11.903,-2.224,13.503,0.585C15.11,3.396,16.163,6.134,16.797,8.492C17.437,10.851,17.722,12.814,17.824,14.173C17.899,14.85,17.889,15.382,17.906,15.74C17.915,16.098,17.909,16.286,17.893,16.286C17.849,16.289,17.798,15.538,17.633,14.194C17.473,12.848,17.134,10.91,16.458,8.589C15.148,3.97,12.104,-2.258,6.611,-7.232C1.116,-12.199,-5.383,-14.608,-10.109,-15.453C-12.487,-15.893,-14.45,-16.036,-15.805,-16.062C-17.159,-16.092,-17.911,-16.068,-17.913,-16.113Z" /></g><g id="Group 30" transform="matrix(1,0,0,1,54.416,22.179)"><path fill="#263238" fill-opacity="1" d="M7.463,-2.371C7.486,-2.309,6.688,-1.938,5.366,-1.418C4.045,-0.897,2.198,-0.23,0.133,0.426C-1.933,1.081,-3.827,1.604,-5.206,1.941C-6.586,2.277,-7.451,2.437,-7.468,2.372C-7.485,2.304,-6.652,2.026,-5.3,1.602C-3.771,1.124,-1.988,0.567,-0.017,-0.049C1.946,-0.684,3.723,-1.257,5.247,-1.749C6.596,-2.184,7.439,-2.437,7.463,-2.371Z" /></g><g id="Group 29" transform="matrix(1,0,0,1,55.556,6.898)"><path fill="#263238" fill-opacity="1" d="M-0.209,-4.633C-0.075,-4.645,0.219,-2.576,0.282,-0.006C0.349,2.565,0.16,4.645,0.025,4.639C-0.114,4.635,-0.148,2.56,-0.215,0.007C-0.277,-2.547,-0.349,-4.621,-0.209,-4.633Z" /></g><g id="Group 28" transform="matrix(1,0,0,1,36.228,9.216)"><path fill="#263238" fill-opacity="1" d="M-10.572,2.546C-10.591,2.483,-9.444,2.068,-7.56,1.486C-5.676,0.906,-3.051,0.171,-0.126,-0.535C2.801,-1.239,5.473,-1.781,7.414,-2.122C9.357,-2.463,10.567,-2.614,10.578,-2.549C10.591,-2.478,9.405,-2.206,7.484,-1.777C5.563,-1.349,2.91,-0.755,-0.009,-0.053C-2.926,0.65,-5.558,1.331,-7.465,1.825C-9.37,2.318,-10.551,2.614,-10.572,2.546Z" /></g></g></g></g></g><g transform="matrix(1,0,0,1,38.519,481.872)" id="Floor" /><g id="hand 2"><g transform="translate(224.25,211)"><animateTransform repeatCount="indefinite" type="translate" attributeName="transform" dur="7.04s" begin="0.44s" calcMode="spline" values="224.25 211; 221.5 222.25; 256 206; 255 189.25; 238 191.75; 224.25 211; 221.5 222.25; 256 206; 255 189.25; 238 191.75; 224.25 211" keyTimes="0; 0.114; 0.25; 0.352; 0.426; 0.506; 0.608; 0.744; 0.847; 0.92; 1" keySplines="0 0 1 1; 0 0 1 1; 0 0 1 1; 0 0 1 1; 0 0 1 1; 0 0 1 1; 0 0 1 1; 0 0 1 1; 0 0 1 1; 0 0 1 1" fill="freeze" /><g transform="rotate(54)"><animateTransform repeatCount="indefinite" type="rotate" attributeName="transform" dur="7.04s" begin="0.44s" calcMode="spline" values="54; 72; 79; 56; 32; 54; 72; 79; 56; 32; 54" keyTimes="0; 0.114; 0.25; 0.352; 0.426; 0.506; 0.608; 0.744; 0.847; 0.92; 1" keySplines="0 0 1 1; 0 0 1 1; 0 0 1 1; 0 0 1 1; 0 0 1 1; 0 0 1 1; 0 0 1 1; 0 0 1 1; 0 0 1 1; 0 0 1 1" fill="freeze" /><g transform="scale(0.03,0.03) translate(-19.856,-724.529)"><g id="Group 70" transform="matrix(1,0,0,1,73.59,174.305)"><path fill="#ffb27d" fill-opacity="1" d="M378.22,545.695L-81.84,545.695C-103.9,530.905,-218.47,452.755,-265.88,394.495C-275.92,382.145,-312.67,275.745,-340.91,189.355C-358.54,135.395,-372.86,89.215,-375.28,78.625C-376.12,74.935,-376.68,67.625,-377.02,57.725L-377.02,57.625C-378.22,22.295,-376.58,-45.835,-374.89,-99.955L-374.88,-100.205L-374.85,-100.915C-374.77,-103.295,-374.7,-105.635,-374.62,-107.955L-374.62,-108.035C-374.61,-108.265,-374.61,-108.505,-374.6,-108.735C-374.29,-118.135,-373.99,-126.995,-373.71,-135.055C-373,-155.195,-372.4,-170.345,-372.15,-176.275L-372.05,-179.035C-372.05,-179.035,-372.04,-179.035,-372.03,-179.045C-371.3,-179.455,-349.17,-191.265,-319.59,-169.955C-312.45,-164.805,-305.85,-152.365,-299.83,-136.135C-295.98,-125.775,-292.37,-113.875,-289.01,-101.335C-276.09,-53.105,-266.82,4.555,-261.87,19.995C-253.89,44.945,-159.83,154.665,-153.95,161.485C-153.86,161.605,-153.76,161.715,-153.67,161.825L-153.67,-11.445L-224.68,-201.445L-253.83,-279.445L-268.48,-318.645C-268.48,-318.645,-290.95,-355.535,-309.8,-399.915C-318.05,-419.335,-325.61,-440.185,-330.29,-460.005C-331.41,-464.725,-332.36,-469.395,-333.12,-473.965C-333.12,-473.975,-333.12,-473.975,-333.12,-473.985C-335.89,-490.735,-336.08,-506.275,-332.23,-518.925C-325.36,-541.455,-309.88,-545.695,-297.99,-545.235C-296.76,-545.195,-295.57,-545.085,-294.42,-544.955C-293.26,-544.815,-292.11,-544.595,-291,-544.295C-288.91,-543.745,-286.93,-542.905,-285.09,-541.835C-285.07,-541.835,-285.07,-541.825,-285.06,-541.815C-282.01,-540.035,-279.38,-537.585,-277.34,-534.595C-277.34,-534.595,-267.3,-521.485,-253.83,-503.865C-244.97,-492.265,-234.62,-478.715,-224.68,-465.655C-206.98,-442.385,-190.54,-420.675,-186.02,-414.315C-161.59,-379.925,-95.81,-267.855,-95.81,-267.855L-18.81,-264.625C-6.61,-264.115,5,-259.255,13.92,-250.925C41.3,-225.355,100.33,-170.025,107.57,-161.795C107.57,-159.095,153.44,-137.035,188.88,-117.395C214.23,-106.685,262.38,-68.725,262.38,-68.725C272.36,-59.915,279.96,-51.145,283.81,-42.765C300.32,-6.835,345.1,305.655,366.51,460.135C373.4,509.795,377.87,543.125,378.22,545.695Z" /></g><g id="Group 69" transform="matrix(1,0,0,1,45.44,-26.415)"><path fill="#efa26f" fill-opacity="1" d="M-67.66,-67.135C-67.66,-67.135,3.67,49.305,13.11,54.545C22.56,59.795,59.27,67.135,63.47,54.545C67.66,41.955,-67.66,-67.135,-67.66,-67.135Z" /></g><g id="Group 68" transform="matrix(1,0,0,1,259.195,59.725)"><path fill="#efa26f" fill-opacity="1" d="M77.135,46.175C77.015,46.065,76.895,45.965,76.775,45.855C76.775,45.855,28.625,7.895,3.275,-2.815C-29.265,-20.855,-70.585,-40.915,-77.135,-46.175C-69.585,-37.535,-16.465,22.585,3.985,27.085C21.935,31.045,62.705,42.195,77.135,46.175Z" /></g><g id="Group 67" transform="matrix(1,0,0,1,-56.35,265.615)"><path fill="#fba425" fill-opacity="1" d="M-23.73,70.515L-23.73,-102.755C-23.73,-102.755,17.43,-33.905,20.58,3.865C23.73,41.615,3.48,102.755,-23.73,70.515Z" /></g></g></g></g></g><g transform="matrix(1,0,0,1,249.75,254.25)" id="Shape Layer 2"><g id="Shape 1"><path stroke-linejoin="miter" stroke-linecap="butt" stroke-width="20" stroke-opacity="1" stroke="#ff8100" d="M-68,-61L-38.25,-14.75L-20.75,-41" /></g></g></svg>