<svg width="425" height="327" viewBox="0 0 425 327" fill="none" xmlns="http://www.w3.org/2000/svg">
<path d="M387.984 4.81442L389.837 5.64328C394.9 8.00967 398.931 10.9347 403.105 14.6269L404.866 16.1289C410.633 21.1423 415.905 26.1611 418.351 33.5644C418.668 34.4874 421.649 40.8635 421.975 41.8144C424.3 48.9273 424.246 55.9084 424.18 63.3208C424.162 65.4138 424.16 67.5064 424.16 69.5996C424.128 82.3736 423.183 94.9627 421.538 107.627C420.287 117.506 419.374 127.373 418.799 137.316C418.412 143.054 417.456 148.08 415.668 153.543C414.712 156.687 414.365 159.8 414.04 163.064C412.655 174.376 409.073 184.874 405.226 195.561C404.071 199.134 403.401 202.744 402.716 206.431L402.672 206.67C401.135 214.787 398.782 222.571 396.221 230.417C395.469 232.731 394.739 235.052 394.01 237.373C393.534 238.851 393.056 240.329 392.577 241.807L391.923 243.902C391.286 245.818 387.984 251.255 386.681 254.252C384.726 258.752 381.681 261.752 380.451 266.439C378.587 269.463 376.474 272.512 375.181 275.814C374.007 278.595 370.636 283.174 369.021 285.721L367.291 288.475L363.69 294.154L361.96 296.908L360.38 299.398C358.926 301.796 358.926 301.797 357.936 304.476L357.936 304.477C355.681 307.752 354.62 309.411 351.994 311.814L349.807 313.873C343.506 319.689 340.721 323.142 337.998 323.814C333.126 324.77 328.445 325.03 323.501 325.064L321.279 325.127C315.022 325.172 304.768 317.034 300.008 312.814C299.358 311.087 298.713 309.357 298.071 307.627C297.711 306.664 293.38 297.807 293.01 296.814C290.652 288.027 289.608 279.427 288.948 270.377C288.418 250.688 288.418 250.688 280.732 233.154C277.55 230.673 274.081 231.107 270.195 231.228C264.414 232.294 261.099 235.782 257.019 239.814C255.955 240.828 254.89 241.841 253.825 242.853C247.796 248.671 242.359 254.726 237.157 261.303C234.363 264.594 231.263 267.374 227.972 270.158L227.972 270.158C226.058 271.724 226.057 271.724 224.633 273.315C218.496 279.051 209.08 278.546 201.269 278.287C196.755 277.934 193.83 276.824 190.553 273.619L189.037 271.814L187.522 270.197C178.981 260.08 172.884 245.293 170.043 232.502C168.88 228.215 167.229 225 164.044 221.814C161.545 221.648 161.545 221.648 159.045 221.814C157.611 223.029 157.611 223.029 157.796 226.627C157.961 238.607 163.08 250.527 166.785 261.821C170.478 273.111 173.384 284.279 173.229 296.252L173.21 299.623C173.045 302.756 172.623 305.734 172.042 308.814C170.975 311.5 165.975 321 163.044 322.814C155.91 326.545 148.775 326.317 140.863 326.252L138.841 326.239C120.72 326.075 104.465 322.11 87.1896 317.002L85.097 316.389C76.1524 313.745 67.7991 310.516 59.4151 306.42C56.1977 304.874 52.9538 303.506 49.6372 302.189C44.7182 300.172 40.4144 297.901 36.0783 294.814C33.2578 292.807 27.8643 289.335 25.0812 287.002L22.4686 284.822L20.0825 282.814L18.3525 281.494C14.421 278.479 11.6271 274.846 8.69886 270.9C7.16018 268.807 7.16018 268.807 5.37944 267.166C1.47461 264.5 0.0410471 252.315 0.0254001 249.564L1.62207e-05 247.209C-0.00320558 246.455 0.974609 242.5 0.974609 242.5C3.34143 232.6 13.1716 217.721 21.4377 212.291C31.8295 206.487 46.0633 205.905 57.51 208.939C66.9845 212.558 74.1393 218.274 81.1287 225.502L83.423 227.801C88.923 233.391 88.923 233.391 90.0639 236.814L91.8603 238.6C94.4714 241.225 96.3617 244.13 98.3117 247.252L99.4905 249.11C102.098 253.235 104.644 257.397 107.184 261.564C110.599 267.144 114.215 272.522 118.056 277.814L119.993 280.627C123.634 284.489 127.362 287.429 132.724 288.197C135.247 288.248 137.565 288.253 140.051 287.814C142.37 285.917 142.451 285.852 142.315 282.5C142.061 281.799 137.543 269.412 137.282 268.689C135.467 263.685 133.646 258.684 131.764 253.705C131.283 252.426 130.809 251.145 130.342 249.861C128.74 245.485 126.95 241.232 125.019 236.99C124.345 235.469 123.703 233.934 123.086 232.389C122.382 230.631 121.642 228.888 120.872 227.158C118.053 220.763 116.117 214.576 114.733 207.725C114.156 204.852 114.156 204.852 113.038 202.436C110.192 194.826 110.939 186.306 110.996 178.314L111.009 174.666C111.021 171.715 112.475 166 112.933 162.939C113.029 160.545 114.885 157.599 115.242 157.282L116.119 154.752C119.764 146.002 128.722 139.717 137.051 135.814C148.674 131.417 160.21 135.779 171.959 139.172C179.269 141.526 186.636 150.6 190.326 157.076C193.731 164.292 194.174 171.492 194.282 179.361C194.315 181.029 194.348 182.697 194.382 184.365C194.429 186.944 194.473 189.524 194.513 192.103C194.664 201.465 194.988 210.764 195.926 220.084L196.15 222.391C197.017 230.277 198.529 239.621 204.576 245.131C207.953 247.446 209.611 247.935 213.656 247.877C214.473 247.868 217.228 246.5 218.03 245.814C220.119 244.334 220.119 244.334 222.966 242.627L222.966 242.627C228.289 239.328 233.147 235.731 238.024 231.814C240.873 229.562 243.728 227.319 246.588 225.082C249.518 222.789 252.434 220.484 255.317 218.131C274.935 202.281 274.935 202.281 286.711 203.342C296.114 205.274 300.684 209.981 306.006 217.814L307.244 219.607C310.481 224.492 312.401 229.28 314.067 234.877C315.394 239.283 316.649 243.432 319.038 247.389C321.157 251.084 322.258 254.493 323.377 258.564C325.869 267.042 328.959 276.04 335.998 281.814C338.28 282.367 338.28 282.367 340.622 282.189L342.973 282.15C345.219 281.979 345.681 282.15 348.181 281.252C349.988 280.603 349.681 280.752 350.994 279.814C356.56 261.91 353.684 240.655 348.995 222.814C348.617 221.316 348.239 219.817 347.862 218.318C347.074 215.235 346.255 212.162 345.418 209.092C344.324 205.073 343.284 201.043 342.262 197.006L341.346 193.403C340.754 191.075 340.167 188.746 339.584 186.416C338.003 180.23 336.176 174.29 333.832 168.353C333.594 167.297 330.762 160.759 330.519 159.682C328.855 152.639 326.712 145.919 324.185 139.139C322.971 135.727 321.965 132.305 321.002 128.814L321.002 128.814C318.345 119.392 318.345 119.392 315.515 110.021C312.657 100.819 310.22 91.8248 308.744 82.2949C308.133 78.755 308.133 78.755 306.444 75.5136C304.571 70.6944 304.603 66.5567 304.694 61.4394L304.684 58.7285C304.743 51.4035 305.121 43.7141 309.505 37.5644C310.958 35.4904 312.02 33.7738 312.899 31.3847C315.049 26.3829 319.296 22.723 323.002 18.8144L324.833 16.8222C340.365 0.449863 367.381 -4.8346 387.984 4.81442Z" fill="black"/>
</svg>
