<svg width="1229" height="1229" viewBox="0 0 1229 1229" fill="none" xmlns="http://www.w3.org/2000/svg">
<circle cx="614.5" cy="614.5" r="614.5" fill="#D9D9D9"/>
<path d="M279.26 865C278.56 865 278.21 864.743 278.21 864.23C278.21 863.717 278.513 863.437 279.12 863.39L282.27 862.9C283.203 862.76 283.833 862.527 284.16 862.2C284.487 861.827 284.65 861.15 284.65 860.17V818.17C284.65 817.517 284.51 817.05 284.23 816.77C283.95 816.49 283.367 816.35 282.48 816.35C280.753 816.35 279.05 817.097 277.37 818.59C275.69 820.083 274.593 822.487 274.08 825.8L273.73 828.11C273.637 828.717 273.31 829.02 272.75 829.02C272.05 829.02 271.747 828.623 271.84 827.83L272.47 815.16C272.563 814.087 272.983 813.55 273.73 813.55C274.057 813.55 274.36 813.643 274.64 813.83C274.92 813.97 275.387 814.133 276.04 814.32C276.74 814.507 277.837 814.6 279.33 814.6H294.94C296.433 814.6 297.507 814.507 298.16 814.32C298.86 814.133 299.35 813.97 299.63 813.83C299.957 813.643 300.26 813.55 300.54 813.55C301.287 813.55 301.707 814.087 301.8 815.16L302.43 827.83C302.523 828.623 302.22 829.02 301.52 829.02C300.96 829.02 300.633 828.717 300.54 828.11L300.19 825.8C299.723 822.487 298.65 820.083 296.97 818.59C295.29 817.097 293.563 816.35 291.79 816.35C290.903 816.35 290.32 816.49 290.04 816.77C289.76 817.05 289.62 817.517 289.62 818.17V860.17C289.62 861.15 289.783 861.827 290.11 862.2C290.483 862.527 291.113 862.76 292 862.9L295.15 863.39C295.757 863.437 296.06 863.717 296.06 864.23C296.06 864.743 295.71 865 295.01 865H279.26ZM305.156 865C304.596 865 304.316 864.743 304.316 864.23C304.316 863.763 304.572 863.483 305.086 863.39L306.066 863.25C307.046 863.11 307.676 862.83 307.956 862.41C308.282 861.99 308.446 861.29 308.446 860.31V820.2C308.446 819.36 308.306 818.8 308.026 818.52C307.792 818.193 307.349 817.983 306.696 817.89L305.226 817.68C304.712 817.587 304.456 817.307 304.456 816.84C304.456 816.373 304.712 816.093 305.226 816C306.532 815.72 307.629 815.393 308.516 815.02C309.402 814.647 310.149 814.273 310.756 813.9C311.502 813.433 312.062 813.2 312.436 813.2C312.949 813.2 313.206 813.573 313.206 814.32V832.87C313.206 833.29 313.346 833.547 313.626 833.64C313.906 833.687 314.256 833.523 314.676 833.15C316.449 831.517 318.012 830.397 319.366 829.79C320.719 829.183 322.142 828.88 323.636 828.88C325.829 828.88 327.556 829.627 328.816 831.12C330.076 832.567 330.706 834.713 330.706 837.56V860.31C330.706 861.29 330.846 861.99 331.126 862.41C331.452 862.783 332.106 863.04 333.086 863.18L334.626 863.39C335.139 863.483 335.396 863.763 335.396 864.23C335.396 864.743 335.116 865 334.556 865H322.796C322.142 865 321.816 864.743 321.816 864.23C321.816 863.763 322.072 863.483 322.586 863.39L323.566 863.25C324.546 863.11 325.176 862.83 325.456 862.41C325.782 861.99 325.946 861.29 325.946 860.31V838.33C325.946 836.043 325.526 834.433 324.686 833.5C323.846 832.567 322.656 832.1 321.116 832.1C319.622 832.1 318.269 832.543 317.056 833.43C315.889 834.27 314.956 835.413 314.256 836.86C313.556 838.26 313.206 839.823 313.206 841.55V860.31C313.206 861.29 313.346 861.99 313.626 862.41C313.952 862.83 314.606 863.087 315.586 863.18L317.476 863.39C317.989 863.483 318.246 863.763 318.246 864.23C318.246 864.743 317.966 865 317.406 865H305.156ZM349.586 865.63C347.346 865.63 345.34 864.883 343.566 863.39C341.793 861.897 340.37 859.797 339.296 857.09C338.27 854.337 337.756 851.163 337.756 847.57C337.756 843.883 338.293 840.64 339.366 837.84C340.44 835.04 341.91 832.847 343.776 831.26C345.643 829.673 347.72 828.88 350.006 828.88C352.76 828.88 354.976 830.023 356.656 832.31C358.383 834.55 359.246 838.213 359.246 843.3C359.246 844.84 358.663 845.61 357.496 845.61H344.196C343.263 845.61 342.796 846.147 342.796 847.22C342.796 852.167 343.52 855.877 344.966 858.35C346.413 860.823 348.256 862.06 350.496 862.06C352.27 862.06 353.716 861.43 354.836 860.17C355.956 858.91 356.866 856.787 357.566 853.8C357.706 853.287 358.01 853.03 358.476 853.03C359.036 853.03 359.246 853.497 359.106 854.43C358.36 858.583 357.17 861.5 355.536 863.18C353.903 864.813 351.92 865.63 349.586 865.63ZM343.986 843.86H351.056C353.296 843.86 354.416 842.693 354.416 840.36C354.416 837.327 354.043 834.947 353.296 833.22C352.55 831.493 351.43 830.63 349.936 830.63C348.116 830.63 346.576 831.68 345.316 833.78C344.103 835.88 343.31 838.867 342.936 842.74C342.843 843.487 343.193 843.86 343.986 843.86ZM384.894 865.63C383.727 865.63 382.607 865.373 381.534 864.86C380.46 864.347 379.574 863.53 378.874 862.41C378.174 861.29 377.824 859.797 377.824 857.93V833.57C377.824 832.73 377.684 832.147 377.404 831.82C377.17 831.493 376.727 831.307 376.074 831.26L374.884 831.12C374.09 831.027 373.694 830.723 373.694 830.21C373.694 829.603 374.137 829.3 375.024 829.3H381.534C382.234 829.3 382.584 829.65 382.584 830.35V856.46C382.584 858.607 382.98 860.147 383.774 861.08C384.614 861.967 385.757 862.41 387.204 862.41C388.65 862.41 389.934 862.013 391.054 861.22C392.174 860.38 393.06 859.283 393.714 857.93C394.414 856.53 394.764 855.013 394.764 853.38V833.57C394.764 832.73 394.624 832.147 394.344 831.82C394.11 831.493 393.667 831.307 393.014 831.26L391.824 831.12C391.03 831.027 390.634 830.723 390.634 830.21C390.634 829.603 391.077 829.3 391.964 829.3H398.474C399.174 829.3 399.524 829.65 399.524 830.35V857.51C399.524 858.35 399.64 858.933 399.874 859.26C400.154 859.54 400.62 859.727 401.274 859.82L402.744 860.03C403.35 860.077 403.654 860.31 403.654 860.73C403.654 861.15 403.28 861.43 402.534 861.57C401.087 861.757 399.92 862.13 399.034 862.69C398.194 863.25 397.447 863.927 396.794 864.72C396.374 865.14 396.024 865.35 395.744 865.35C395.324 865.35 395.114 865.07 395.114 864.51V861.29C395.114 860.917 394.974 860.707 394.694 860.66C394.46 860.567 394.204 860.66 393.924 860.94C392.197 862.667 390.657 863.88 389.304 864.58C387.997 865.28 386.527 865.63 384.894 865.63ZM406.111 865C405.551 865 405.271 864.743 405.271 864.23C405.271 863.763 405.528 863.483 406.041 863.39L407.021 863.25C408.001 863.11 408.724 862.83 409.191 862.41C409.658 861.99 409.891 861.29 409.891 860.31V820.2C409.891 819.36 409.751 818.777 409.471 818.45C409.238 818.123 408.794 817.937 408.141 817.89L406.531 817.68C406.018 817.587 405.761 817.307 405.761 816.84C405.761 816.373 406.018 816.093 406.531 816C407.838 815.72 408.958 815.393 409.891 815.02C410.824 814.647 411.594 814.273 412.201 813.9C412.948 813.433 413.508 813.2 413.881 813.2C414.394 813.2 414.651 813.573 414.651 814.32V860.31C414.651 861.29 414.791 861.99 415.071 862.41C415.398 862.783 416.051 863.04 417.031 863.18L418.641 863.39C419.154 863.483 419.411 863.763 419.411 864.23C419.411 864.743 419.131 865 418.571 865H406.111ZM430.382 865.63C428.748 865.63 427.395 865.07 426.322 863.95C425.295 862.783 424.782 860.893 424.782 858.28V832.1C424.782 831.54 424.502 831.26 423.942 831.26H421.912C421.165 831.26 420.792 830.98 420.792 830.42C420.792 830.047 421.002 829.72 421.422 829.44C422.962 828.367 424.198 827.223 425.132 826.01C426.065 824.75 426.882 823.047 427.582 820.9C427.908 819.92 428.305 819.43 428.772 819.43C429.285 819.43 429.542 819.803 429.542 820.55V828.32C429.542 828.973 429.868 829.3 430.522 829.3H435.072C435.818 829.3 436.192 829.627 436.192 830.28C436.192 830.933 435.818 831.26 435.072 831.26H430.522C429.868 831.26 429.542 831.587 429.542 832.24V858.35C429.542 859.377 429.705 860.193 430.032 860.8C430.358 861.36 430.965 861.64 431.852 861.64C432.832 861.64 433.625 861.15 434.232 860.17C434.885 859.19 435.305 857.603 435.492 855.41C435.585 854.757 435.888 854.43 436.402 854.43C436.962 854.43 437.242 854.78 437.242 855.48C437.102 859.073 436.355 861.663 435.002 863.25C433.695 864.837 432.155 865.63 430.382 865.63ZM446.187 822.65C445.207 822.65 444.367 822.3 443.667 821.6C443.014 820.9 442.687 820.013 442.687 818.94C442.687 817.867 443.014 817.003 443.667 816.35C444.367 815.65 445.207 815.3 446.187 815.3C447.167 815.3 447.984 815.65 448.637 816.35C449.29 817.003 449.617 817.867 449.617 818.94C449.617 820.013 449.29 820.9 448.637 821.6C447.984 822.3 447.167 822.65 446.187 822.65ZM440.307 865C439.607 865 439.257 864.743 439.257 864.23C439.257 863.81 439.56 863.53 440.167 863.39L441.007 863.25C442.174 863.063 442.92 862.783 443.247 862.41C443.574 861.99 443.737 861.29 443.737 860.31V836.79C443.737 835.95 443.597 835.39 443.317 835.11C443.084 834.783 442.64 834.573 441.987 834.48L440.517 834.27C439.91 834.223 439.607 833.967 439.607 833.5C439.607 833.127 439.98 832.87 440.727 832.73C442.174 832.497 443.34 832.123 444.227 831.61C445.114 831.097 445.977 830.467 446.817 829.72C447.237 829.3 447.587 829.09 447.867 829.09C448.287 829.09 448.497 829.37 448.497 829.93V860.31C448.497 861.29 448.637 861.99 448.917 862.41C449.197 862.83 449.734 863.087 450.527 863.18L452.277 863.39C452.79 863.483 453.047 863.74 453.047 864.16C453.047 864.72 452.697 865 451.997 865H440.307ZM455.893 865C455.193 865 454.843 864.743 454.843 864.23C454.843 863.81 455.146 863.53 455.753 863.39L456.593 863.25C457.573 863.063 458.203 862.783 458.483 862.41C458.81 861.99 458.973 861.29 458.973 860.31V836.79C458.973 835.95 458.833 835.39 458.553 835.11C458.32 834.783 457.876 834.573 457.223 834.48L455.753 834.27C455.146 834.223 454.843 833.967 454.843 833.5C454.843 833.127 455.216 832.87 455.963 832.73C457.41 832.497 458.506 832.123 459.253 831.61C460.046 831.097 460.863 830.467 461.703 829.72C462.123 829.3 462.473 829.09 462.753 829.09C463.173 829.09 463.383 829.37 463.383 829.93V833.08C463.383 833.407 463.523 833.663 463.803 833.85C464.083 833.99 464.386 833.897 464.713 833.57C466.626 831.75 468.283 830.513 469.683 829.86C471.13 829.207 472.576 828.88 474.023 828.88C475.376 828.88 476.566 829.253 477.593 830C478.666 830.7 479.46 831.773 479.973 833.22C480.113 833.593 480.346 833.827 480.673 833.92C481.046 833.967 481.396 833.827 481.723 833.5C483.636 831.727 485.293 830.513 486.693 829.86C488.093 829.207 489.516 828.88 490.963 828.88C492.923 828.88 494.51 829.627 495.723 831.12C496.983 832.567 497.613 834.713 497.613 837.56V860.31C497.613 861.29 497.753 861.99 498.033 862.41C498.36 862.783 499.013 863.04 499.993 863.18L501.533 863.39C502.046 863.483 502.303 863.763 502.303 864.23C502.303 864.743 502.023 865 501.463 865H489.493C488.84 865 488.513 864.743 488.513 864.23C488.513 863.763 488.77 863.483 489.283 863.39L490.263 863.25C491.336 863.11 492.036 862.83 492.363 862.41C492.69 861.99 492.853 861.29 492.853 860.31V838.33C492.853 836.043 492.433 834.433 491.593 833.5C490.8 832.567 489.703 832.1 488.303 832.1C486.903 832.1 485.62 832.543 484.453 833.43C483.333 834.27 482.423 835.413 481.723 836.86C481.023 838.26 480.673 839.823 480.673 841.55V860.31C480.673 861.29 480.836 861.99 481.163 862.41C481.49 862.783 482.166 863.04 483.193 863.18L484.733 863.39C485.246 863.483 485.503 863.763 485.503 864.23C485.503 864.743 485.223 865 484.663 865H472.763C472.11 865 471.783 864.743 471.783 864.23C471.783 863.763 472.04 863.483 472.553 863.39L473.533 863.25C474.513 863.11 475.143 862.83 475.423 862.41C475.75 861.99 475.913 861.29 475.913 860.31V838.33C475.913 836.043 475.493 834.433 474.653 833.5C473.86 832.567 472.763 832.1 471.363 832.1C469.963 832.1 468.68 832.543 467.513 833.43C466.393 834.27 465.483 835.413 464.783 836.86C464.083 838.26 463.733 839.823 463.733 841.55V860.31C463.733 861.29 463.873 861.99 464.153 862.41C464.48 862.83 465.133 863.087 466.113 863.18L468.003 863.39C468.516 863.483 468.773 863.74 468.773 864.16C468.773 864.72 468.423 865 467.723 865H455.893ZM511.48 865.63C509.52 865.63 507.91 865.023 506.65 863.81C505.39 862.55 504.76 860.893 504.76 858.84C504.76 856.833 505.39 854.943 506.65 853.17C507.91 851.35 509.637 849.717 511.83 848.27C514.023 846.823 516.52 845.657 519.32 844.77C519.927 844.583 520.23 844.187 520.23 843.58V837.21C520.23 834.97 519.88 833.383 519.18 832.45C518.48 831.47 517.523 830.98 516.31 830.98C515.143 830.98 514.07 831.517 513.09 832.59C512.157 833.617 511.48 835.367 511.06 837.84C510.827 839.333 510.313 840.43 509.52 841.13C508.773 841.783 508.003 842.11 507.21 842.11C505.903 842.11 505.25 841.457 505.25 840.15C505.25 838.797 505.623 837.467 506.37 836.16C507.163 834.807 508.19 833.593 509.45 832.52C510.71 831.4 512.087 830.513 513.58 829.86C515.073 829.207 516.567 828.88 518.06 828.88C522.68 828.88 524.99 831.563 524.99 836.93V858.35C524.99 860.31 525.48 861.29 526.46 861.29C527.067 861.29 527.627 860.893 528.14 860.1C528.653 859.26 528.91 857.86 528.91 855.9C528.91 855.153 529.213 854.78 529.82 854.78C530.38 854.78 530.66 855.177 530.66 855.97C530.66 859.377 530.053 861.85 528.84 863.39C527.673 864.883 526.343 865.63 524.85 865.63C523.73 865.63 522.843 865.187 522.19 864.3C521.537 863.367 521.093 862.27 520.86 861.01C520.813 860.543 520.603 860.31 520.23 860.31C519.903 860.263 519.577 860.473 519.25 860.94C518.13 862.48 516.987 863.647 515.82 864.44C514.653 865.233 513.207 865.63 511.48 865.63ZM513.37 862.41C514.583 862.41 515.703 861.99 516.73 861.15C517.757 860.263 518.597 859.097 519.25 857.65C519.903 856.203 520.23 854.57 520.23 852.75V847.64C520.23 846.753 519.74 846.497 518.76 846.87C515.913 847.897 513.697 849.32 512.11 851.14C510.57 852.913 509.8 855.06 509.8 857.58C509.8 860.8 510.99 862.41 513.37 862.41ZM540.919 865.63C539.286 865.63 537.932 865.07 536.859 863.95C535.832 862.783 535.319 860.893 535.319 858.28V832.1C535.319 831.54 535.039 831.26 534.479 831.26H532.449C531.702 831.26 531.329 830.98 531.329 830.42C531.329 830.047 531.539 829.72 531.959 829.44C533.499 828.367 534.736 827.223 535.669 826.01C536.602 824.75 537.419 823.047 538.119 820.9C538.446 819.92 538.842 819.43 539.309 819.43C539.822 819.43 540.079 819.803 540.079 820.55V828.32C540.079 828.973 540.406 829.3 541.059 829.3H545.609C546.356 829.3 546.729 829.627 546.729 830.28C546.729 830.933 546.356 831.26 545.609 831.26H541.059C540.406 831.26 540.079 831.587 540.079 832.24V858.35C540.079 859.377 540.242 860.193 540.569 860.8C540.896 861.36 541.502 861.64 542.389 861.64C543.369 861.64 544.162 861.15 544.769 860.17C545.422 859.19 545.842 857.603 546.029 855.41C546.122 854.757 546.426 854.43 546.939 854.43C547.499 854.43 547.779 854.78 547.779 855.48C547.639 859.073 546.892 861.663 545.539 863.25C544.232 864.837 542.692 865.63 540.919 865.63ZM562.184 865.63C559.944 865.63 557.937 864.883 556.164 863.39C554.391 861.897 552.967 859.797 551.894 857.09C550.867 854.337 550.354 851.163 550.354 847.57C550.354 843.883 550.891 840.64 551.964 837.84C553.037 835.04 554.507 832.847 556.374 831.26C558.241 829.673 560.317 828.88 562.604 828.88C565.357 828.88 567.574 830.023 569.254 832.31C570.981 834.55 571.844 838.213 571.844 843.3C571.844 844.84 571.261 845.61 570.094 845.61H556.794C555.861 845.61 555.394 846.147 555.394 847.22C555.394 852.167 556.117 855.877 557.564 858.35C559.011 860.823 560.854 862.06 563.094 862.06C564.867 862.06 566.314 861.43 567.434 860.17C568.554 858.91 569.464 856.787 570.164 853.8C570.304 853.287 570.607 853.03 571.074 853.03C571.634 853.03 571.844 853.497 571.704 854.43C570.957 858.583 569.767 861.5 568.134 863.18C566.501 864.813 564.517 865.63 562.184 865.63ZM556.584 843.86H563.654C565.894 843.86 567.014 842.693 567.014 840.36C567.014 837.327 566.641 834.947 565.894 833.22C565.147 831.493 564.027 830.63 562.534 830.63C560.714 830.63 559.174 831.68 557.914 833.78C556.701 835.88 555.907 838.867 555.534 842.74C555.441 843.487 555.791 843.86 556.584 843.86ZM599.941 865.63C598.028 865.63 596.185 865.023 594.411 863.81C593.385 863.11 592.451 863.297 591.611 864.37C591.145 864.883 590.795 865.21 590.561 865.35C590.328 865.537 590.095 865.63 589.861 865.63C589.348 865.63 589.161 865.303 589.301 864.65C589.488 863.577 589.628 862.2 589.721 860.52C589.815 858.84 589.861 856.6 589.861 853.8V820.2C589.861 819.36 589.721 818.8 589.441 818.52C589.208 818.193 588.765 817.983 588.111 817.89L586.641 817.68C586.128 817.587 585.871 817.307 585.871 816.84C585.871 816.373 586.128 816.093 586.641 816C587.948 815.72 589.045 815.393 589.931 815.02C590.818 814.647 591.565 814.273 592.171 813.9C592.918 813.433 593.478 813.2 593.851 813.2C594.365 813.2 594.621 813.573 594.621 814.32V831.61C594.621 831.983 594.761 832.24 595.041 832.38C595.368 832.473 595.718 832.333 596.091 831.96C598.098 829.907 600.291 828.88 602.671 828.88C604.818 828.88 606.708 829.603 608.341 831.05C610.021 832.45 611.328 834.41 612.261 836.93C613.241 839.45 613.731 842.413 613.731 845.82C613.731 849.693 613.125 853.123 611.911 856.11C610.698 859.097 609.041 861.43 606.941 863.11C604.888 864.79 602.555 865.63 599.941 865.63ZM599.801 863.88C602.415 863.88 604.515 862.34 606.101 859.26C607.735 856.18 608.551 852.027 608.551 846.8C608.551 841.993 607.851 838.33 606.451 835.81C605.051 833.29 603.068 832.03 600.501 832.03C598.915 832.03 597.538 832.683 596.371 833.99C595.205 835.297 594.621 837.117 594.621 839.45V857.09C594.621 859.19 595.088 860.847 596.021 862.06C597.001 863.273 598.261 863.88 599.801 863.88ZM628.527 865.63C627.36 865.63 626.24 865.373 625.167 864.86C624.093 864.347 623.207 863.53 622.507 862.41C621.807 861.29 621.457 859.797 621.457 857.93V833.57C621.457 832.73 621.317 832.147 621.037 831.82C620.803 831.493 620.36 831.307 619.707 831.26L618.517 831.12C617.723 831.027 617.327 830.723 617.327 830.21C617.327 829.603 617.77 829.3 618.657 829.3H625.167C625.867 829.3 626.217 829.65 626.217 830.35V856.46C626.217 858.607 626.613 860.147 627.407 861.08C628.247 861.967 629.39 862.41 630.837 862.41C632.283 862.41 633.567 862.013 634.687 861.22C635.807 860.38 636.693 859.283 637.347 857.93C638.047 856.53 638.397 855.013 638.397 853.38V833.57C638.397 832.73 638.257 832.147 637.977 831.82C637.743 831.493 637.3 831.307 636.647 831.26L635.457 831.12C634.663 831.027 634.267 830.723 634.267 830.21C634.267 829.603 634.71 829.3 635.597 829.3H642.107C642.807 829.3 643.157 829.65 643.157 830.35V857.51C643.157 858.35 643.273 858.933 643.507 859.26C643.787 859.54 644.253 859.727 644.907 859.82L646.377 860.03C646.983 860.077 647.287 860.31 647.287 860.73C647.287 861.15 646.913 861.43 646.167 861.57C644.72 861.757 643.553 862.13 642.667 862.69C641.827 863.25 641.08 863.927 640.427 864.72C640.007 865.14 639.657 865.35 639.377 865.35C638.957 865.35 638.747 865.07 638.747 864.51V861.29C638.747 860.917 638.607 860.707 638.327 860.66C638.093 860.567 637.837 860.66 637.557 860.94C635.83 862.667 634.29 863.88 632.937 864.58C631.63 865.28 630.16 865.63 628.527 865.63ZM657.514 865.63C656.44 865.63 655.297 865.49 654.084 865.21C652.87 864.977 651.89 864.673 651.144 864.3C650.724 864.067 650.514 863.67 650.514 863.11L650.304 855.27C650.304 854.477 650.607 854.08 651.214 854.08C651.727 854.08 652.077 854.453 652.264 855.2C653.057 858.513 654.014 860.777 655.134 861.99C656.3 863.203 657.7 863.81 659.334 863.81C660.687 863.81 661.807 863.297 662.694 862.27C663.58 861.197 664.024 859.727 664.024 857.86C664.024 855.993 663.51 854.337 662.484 852.89C661.457 851.443 659.73 849.857 657.304 848.13C654.877 846.497 653.104 844.863 651.984 843.23C650.864 841.55 650.304 839.73 650.304 837.77C650.304 835.11 651.237 832.963 653.104 831.33C654.97 829.697 657.444 828.88 660.524 828.88C661.457 828.88 662.367 828.997 663.254 829.23C664.14 829.417 664.934 829.743 665.634 830.21C666.054 830.49 666.264 830.863 666.264 831.33L666.404 839.03C666.404 839.73 666.124 840.08 665.564 840.08C665.237 840.08 665.004 839.987 664.864 839.8C664.724 839.567 664.607 839.287 664.514 838.96C663.58 835.927 662.647 833.827 661.714 832.66C660.78 831.447 659.637 830.84 658.284 830.84C657.07 830.84 656.067 831.26 655.274 832.1C654.48 832.94 654.084 833.99 654.084 835.25C654.084 836.883 654.574 838.307 655.554 839.52C656.534 840.733 658.307 842.227 660.874 844C663.207 845.68 664.957 847.5 666.124 849.46C667.337 851.373 667.944 853.473 667.944 855.76C667.944 858.747 666.987 861.15 665.074 862.97C663.16 864.743 660.64 865.63 657.514 865.63ZM677.857 822.65C676.877 822.65 676.037 822.3 675.337 821.6C674.684 820.9 674.357 820.013 674.357 818.94C674.357 817.867 674.684 817.003 675.337 816.35C676.037 815.65 676.877 815.3 677.857 815.3C678.837 815.3 679.654 815.65 680.307 816.35C680.96 817.003 681.287 817.867 681.287 818.94C681.287 820.013 680.96 820.9 680.307 821.6C679.654 822.3 678.837 822.65 677.857 822.65ZM671.977 865C671.277 865 670.927 864.743 670.927 864.23C670.927 863.81 671.23 863.53 671.837 863.39L672.677 863.25C673.844 863.063 674.59 862.783 674.917 862.41C675.244 861.99 675.407 861.29 675.407 860.31V836.79C675.407 835.95 675.267 835.39 674.987 835.11C674.754 834.783 674.31 834.573 673.657 834.48L672.187 834.27C671.58 834.223 671.277 833.967 671.277 833.5C671.277 833.127 671.65 832.87 672.397 832.73C673.844 832.497 675.01 832.123 675.897 831.61C676.784 831.097 677.647 830.467 678.487 829.72C678.907 829.3 679.257 829.09 679.537 829.09C679.957 829.09 680.167 829.37 680.167 829.93V860.31C680.167 861.29 680.307 861.99 680.587 862.41C680.867 862.83 681.404 863.087 682.197 863.18L683.947 863.39C684.46 863.483 684.717 863.74 684.717 864.16C684.717 864.72 684.367 865 683.667 865H671.977ZM687.563 865C686.863 865 686.513 864.743 686.513 864.23C686.513 863.81 686.816 863.53 687.423 863.39L688.263 863.25C689.243 863.063 689.873 862.783 690.153 862.41C690.48 861.99 690.643 861.29 690.643 860.31V836.79C690.643 835.95 690.503 835.39 690.223 835.11C689.99 834.783 689.546 834.573 688.893 834.48L687.423 834.27C686.816 834.223 686.513 833.967 686.513 833.5C686.513 833.127 686.886 832.87 687.633 832.73C689.08 832.497 690.176 832.123 690.923 831.61C691.716 831.097 692.533 830.467 693.373 829.72C693.793 829.3 694.143 829.09 694.423 829.09C694.843 829.09 695.053 829.37 695.053 829.93V833.08C695.053 833.5 695.193 833.78 695.473 833.92C695.8 834.013 696.15 833.873 696.523 833.5C698.39 831.727 700.023 830.513 701.423 829.86C702.87 829.207 704.386 828.88 705.973 828.88C708.073 828.88 709.753 829.627 711.013 831.12C712.273 832.567 712.903 834.713 712.903 837.56V860.31C712.903 861.29 713.043 861.99 713.323 862.41C713.65 862.783 714.303 863.04 715.283 863.18L716.823 863.39C717.336 863.483 717.593 863.763 717.593 864.23C717.593 864.743 717.313 865 716.753 865H704.993C704.34 865 704.013 864.743 704.013 864.23C704.013 863.763 704.27 863.483 704.783 863.39L705.763 863.25C706.743 863.11 707.373 862.83 707.653 862.41C707.98 861.99 708.143 861.29 708.143 860.31V838.33C708.143 836.043 707.723 834.433 706.883 833.5C706.043 832.567 704.853 832.1 703.313 832.1C701.82 832.1 700.466 832.543 699.253 833.43C698.086 834.27 697.153 835.413 696.453 836.86C695.753 838.26 695.403 839.823 695.403 841.55V860.31C695.403 861.29 695.543 861.99 695.823 862.41C696.15 862.83 696.803 863.087 697.783 863.18L699.673 863.39C700.186 863.483 700.443 863.74 700.443 864.16C700.443 864.72 700.093 865 699.393 865H687.563ZM731.784 865.63C729.544 865.63 727.537 864.883 725.764 863.39C723.99 861.897 722.567 859.797 721.494 857.09C720.467 854.337 719.954 851.163 719.954 847.57C719.954 843.883 720.49 840.64 721.564 837.84C722.637 835.04 724.107 832.847 725.974 831.26C727.84 829.673 729.917 828.88 732.204 828.88C734.957 828.88 737.174 830.023 738.854 832.31C740.58 834.55 741.444 838.213 741.444 843.3C741.444 844.84 740.86 845.61 739.694 845.61H726.394C725.46 845.61 724.994 846.147 724.994 847.22C724.994 852.167 725.717 855.877 727.164 858.35C728.61 860.823 730.454 862.06 732.694 862.06C734.467 862.06 735.914 861.43 737.034 860.17C738.154 858.91 739.064 856.787 739.764 853.8C739.904 853.287 740.207 853.03 740.674 853.03C741.234 853.03 741.444 853.497 741.304 854.43C740.557 858.583 739.367 861.5 737.734 863.18C736.1 864.813 734.117 865.63 731.784 865.63ZM726.184 843.86H733.254C735.494 843.86 736.614 842.693 736.614 840.36C736.614 837.327 736.24 834.947 735.494 833.22C734.747 831.493 733.627 830.63 732.134 830.63C730.314 830.63 728.774 831.68 727.514 833.78C726.3 835.88 725.507 838.867 725.134 842.74C725.04 843.487 725.39 843.86 726.184 843.86ZM752.397 865.63C751.323 865.63 750.18 865.49 748.967 865.21C747.753 864.977 746.773 864.673 746.027 864.3C745.607 864.067 745.397 863.67 745.397 863.11L745.187 855.27C745.187 854.477 745.49 854.08 746.097 854.08C746.61 854.08 746.96 854.453 747.147 855.2C747.94 858.513 748.897 860.777 750.017 861.99C751.183 863.203 752.583 863.81 754.217 863.81C755.57 863.81 756.69 863.297 757.577 862.27C758.463 861.197 758.907 859.727 758.907 857.86C758.907 855.993 758.393 854.337 757.367 852.89C756.34 851.443 754.613 849.857 752.187 848.13C749.76 846.497 747.987 844.863 746.867 843.23C745.747 841.55 745.187 839.73 745.187 837.77C745.187 835.11 746.12 832.963 747.987 831.33C749.853 829.697 752.327 828.88 755.407 828.88C756.34 828.88 757.25 828.997 758.137 829.23C759.023 829.417 759.817 829.743 760.517 830.21C760.937 830.49 761.147 830.863 761.147 831.33L761.287 839.03C761.287 839.73 761.007 840.08 760.447 840.08C760.12 840.08 759.887 839.987 759.747 839.8C759.607 839.567 759.49 839.287 759.397 838.96C758.463 835.927 757.53 833.827 756.597 832.66C755.663 831.447 754.52 830.84 753.167 830.84C751.953 830.84 750.95 831.26 750.157 832.1C749.363 832.94 748.967 833.99 748.967 835.25C748.967 836.883 749.457 838.307 750.437 839.52C751.417 840.733 753.19 842.227 755.757 844C758.09 845.68 759.84 847.5 761.007 849.46C762.22 851.373 762.827 853.473 762.827 855.76C762.827 858.747 761.87 861.15 759.957 862.97C758.043 864.743 755.523 865.63 752.397 865.63ZM773.93 865.63C772.856 865.63 771.713 865.49 770.5 865.21C769.286 864.977 768.306 864.673 767.56 864.3C767.14 864.067 766.93 863.67 766.93 863.11L766.72 855.27C766.72 854.477 767.023 854.08 767.63 854.08C768.143 854.08 768.493 854.453 768.68 855.2C769.473 858.513 770.43 860.777 771.55 861.99C772.716 863.203 774.116 863.81 775.75 863.81C777.103 863.81 778.223 863.297 779.11 862.27C779.996 861.197 780.44 859.727 780.44 857.86C780.44 855.993 779.926 854.337 778.9 852.89C777.873 851.443 776.146 849.857 773.72 848.13C771.293 846.497 769.52 844.863 768.4 843.23C767.28 841.55 766.72 839.73 766.72 837.77C766.72 835.11 767.653 832.963 769.52 831.33C771.386 829.697 773.86 828.88 776.94 828.88C777.873 828.88 778.783 828.997 779.67 829.23C780.556 829.417 781.35 829.743 782.05 830.21C782.47 830.49 782.68 830.863 782.68 831.33L782.82 839.03C782.82 839.73 782.54 840.08 781.98 840.08C781.653 840.08 781.42 839.987 781.28 839.8C781.14 839.567 781.023 839.287 780.93 838.96C779.996 835.927 779.063 833.827 778.13 832.66C777.196 831.447 776.053 830.84 774.7 830.84C773.486 830.84 772.483 831.26 771.69 832.1C770.896 832.94 770.5 833.99 770.5 835.25C770.5 836.883 770.99 838.307 771.97 839.52C772.95 840.733 774.723 842.227 777.29 844C779.623 845.68 781.373 847.5 782.54 849.46C783.753 851.373 784.36 853.473 784.36 855.76C784.36 858.747 783.403 861.15 781.49 862.97C779.576 864.743 777.056 865.63 773.93 865.63ZM811.628 865.63C809.388 865.63 807.381 864.883 805.608 863.39C803.834 861.897 802.411 859.797 801.338 857.09C800.311 854.337 799.798 851.163 799.798 847.57C799.798 843.883 800.334 840.64 801.408 837.84C802.481 835.04 803.951 832.847 805.818 831.26C807.684 829.673 809.761 828.88 812.048 828.88C814.801 828.88 817.018 830.023 818.698 832.31C820.424 834.55 821.288 838.213 821.288 843.3C821.288 844.84 820.704 845.61 819.538 845.61H806.238C805.304 845.61 804.838 846.147 804.838 847.22C804.838 852.167 805.561 855.877 807.008 858.35C808.454 860.823 810.298 862.06 812.538 862.06C814.311 862.06 815.758 861.43 816.878 860.17C817.998 858.91 818.908 856.787 819.608 853.8C819.748 853.287 820.051 853.03 820.518 853.03C821.078 853.03 821.288 853.497 821.148 854.43C820.401 858.583 819.211 861.5 817.578 863.18C815.944 864.813 813.961 865.63 811.628 865.63ZM806.028 843.86H813.098C815.338 843.86 816.458 842.693 816.458 840.36C816.458 837.327 816.084 834.947 815.338 833.22C814.591 831.493 813.471 830.63 811.978 830.63C810.158 830.63 808.618 831.68 807.358 833.78C806.144 835.88 805.351 838.867 804.978 842.74C804.884 843.487 805.234 843.86 806.028 843.86ZM825.17 865C824.47 865 824.12 864.743 824.12 864.23C824.12 863.81 824.424 863.53 825.03 863.39L825.87 863.25C826.85 863.063 827.48 862.783 827.76 862.41C828.087 861.99 828.25 861.29 828.25 860.31V836.79C828.25 835.95 828.11 835.39 827.83 835.11C827.597 834.783 827.154 834.573 826.5 834.48L825.03 834.27C824.424 834.223 824.12 833.967 824.12 833.5C824.12 833.127 824.494 832.87 825.24 832.73C826.687 832.497 827.784 832.123 828.53 831.61C829.324 831.097 830.14 830.467 830.98 829.72C831.4 829.3 831.75 829.09 832.03 829.09C832.45 829.09 832.66 829.37 832.66 829.93V833.08C832.66 833.5 832.8 833.78 833.08 833.92C833.407 834.013 833.757 833.873 834.13 833.5C835.997 831.727 837.63 830.513 839.03 829.86C840.477 829.207 841.994 828.88 843.58 828.88C845.68 828.88 847.36 829.627 848.62 831.12C849.88 832.567 850.51 834.713 850.51 837.56V860.31C850.51 861.29 850.65 861.99 850.93 862.41C851.257 862.783 851.91 863.04 852.89 863.18L854.43 863.39C854.944 863.483 855.2 863.763 855.2 864.23C855.2 864.743 854.92 865 854.36 865H842.6C841.947 865 841.62 864.743 841.62 864.23C841.62 863.763 841.877 863.483 842.39 863.39L843.37 863.25C844.35 863.11 844.98 862.83 845.26 862.41C845.587 861.99 845.75 861.29 845.75 860.31V838.33C845.75 836.043 845.33 834.433 844.49 833.5C843.65 832.567 842.46 832.1 840.92 832.1C839.427 832.1 838.074 832.543 836.86 833.43C835.694 834.27 834.76 835.413 834.06 836.86C833.36 838.26 833.01 839.823 833.01 841.55V860.31C833.01 861.29 833.15 861.99 833.43 862.41C833.757 862.83 834.41 863.087 835.39 863.18L837.28 863.39C837.794 863.483 838.05 863.74 838.05 864.16C838.05 864.72 837.7 865 837 865H825.17ZM868.411 880.05C864.865 880.05 862.065 879.327 860.011 877.88C857.958 876.48 856.931 874.777 856.931 872.77C856.931 871.93 857.048 871.16 857.281 870.46C857.515 869.807 858.005 869.037 858.751 868.15C859.545 867.263 860.735 866.12 862.321 864.72C862.881 864.207 863.161 863.74 863.161 863.32C863.161 862.853 862.881 862.503 862.321 862.27C860.641 861.57 859.638 860.683 859.311 859.61C858.985 858.49 859.381 857.463 860.501 856.53L865.541 852.19C866.101 851.723 866.078 851.327 865.471 851C863.558 850.067 862.041 848.62 860.921 846.66C859.801 844.7 859.241 842.6 859.241 840.36C859.241 838.213 859.708 836.277 860.641 834.55C861.575 832.823 862.835 831.447 864.421 830.42C866.008 829.393 867.781 828.88 869.741 828.88C870.861 828.88 871.935 829.067 872.961 829.44C873.615 829.673 874.011 829.463 874.151 828.81C874.571 827.037 875.341 825.66 876.461 824.68C877.628 823.653 878.771 823.14 879.891 823.14C880.965 823.14 881.828 823.467 882.481 824.12C883.181 824.727 883.531 825.497 883.531 826.43C883.531 827.223 883.298 827.853 882.831 828.32C882.365 828.787 881.781 829.02 881.081 829.02C880.475 829.02 880.031 828.903 879.751 828.67C879.471 828.437 879.215 828.203 878.981 827.97C878.748 827.737 878.375 827.62 877.861 827.62C876.741 827.62 876.041 828.227 875.761 829.44C875.621 829.907 875.621 830.303 875.761 830.63C875.948 830.957 876.205 831.283 876.531 831.61C877.651 832.683 878.515 833.99 879.121 835.53C879.775 837.07 880.101 838.773 880.101 840.64C880.101 842.88 879.635 844.887 878.701 846.66C877.815 848.433 876.578 849.833 874.991 850.86C873.451 851.887 871.701 852.4 869.741 852.4C868.901 852.4 868.178 852.587 867.571 852.96C866.965 853.287 866.358 853.777 865.751 854.43L864.561 855.76C863.955 856.507 863.768 857.23 864.001 857.93C864.281 858.583 864.935 858.91 865.961 858.91H871.981C875.341 858.91 878.001 859.75 879.961 861.43C881.921 863.063 882.901 865.327 882.901 868.22C882.901 870.507 882.248 872.537 880.941 874.31C879.635 876.083 877.885 877.483 875.691 878.51C873.545 879.537 871.118 880.05 868.411 880.05ZM869.671 850.65C871.351 850.65 872.681 849.74 873.661 847.92C874.641 846.1 875.131 843.627 875.131 840.5C875.131 837.467 874.618 835.04 873.591 833.22C872.611 831.353 871.305 830.42 869.671 830.42C868.038 830.42 866.708 831.353 865.681 833.22C864.701 835.04 864.211 837.467 864.211 840.5C864.211 843.627 864.701 846.1 865.681 847.92C866.661 849.74 867.991 850.65 869.671 850.65ZM869.251 878.51C870.931 878.51 872.471 878.137 873.871 877.39C875.271 876.643 876.368 875.593 877.161 874.24C878.001 872.933 878.421 871.44 878.421 869.76C878.421 867.66 877.791 866.05 876.531 864.93C875.318 863.763 873.591 863.18 871.351 863.18H869.741C868.295 863.18 867.198 863.32 866.451 863.6C865.751 863.88 865.075 864.37 864.421 865.07C862.975 866.61 862.065 867.847 861.691 868.78C861.318 869.713 861.131 870.67 861.131 871.65C861.131 873.703 861.831 875.36 863.231 876.62C864.678 877.88 866.685 878.51 869.251 878.51ZM892.095 822.65C891.115 822.65 890.275 822.3 889.575 821.6C888.922 820.9 888.595 820.013 888.595 818.94C888.595 817.867 888.922 817.003 889.575 816.35C890.275 815.65 891.115 815.3 892.095 815.3C893.075 815.3 893.892 815.65 894.545 816.35C895.199 817.003 895.525 817.867 895.525 818.94C895.525 820.013 895.199 820.9 894.545 821.6C893.892 822.3 893.075 822.65 892.095 822.65ZM886.215 865C885.515 865 885.165 864.743 885.165 864.23C885.165 863.81 885.469 863.53 886.075 863.39L886.915 863.25C888.082 863.063 888.829 862.783 889.155 862.41C889.482 861.99 889.645 861.29 889.645 860.31V836.79C889.645 835.95 889.505 835.39 889.225 835.11C888.992 834.783 888.549 834.573 887.895 834.48L886.425 834.27C885.819 834.223 885.515 833.967 885.515 833.5C885.515 833.127 885.889 832.87 886.635 832.73C888.082 832.497 889.249 832.123 890.135 831.61C891.022 831.097 891.885 830.467 892.725 829.72C893.145 829.3 893.495 829.09 893.775 829.09C894.195 829.09 894.405 829.37 894.405 829.93V860.31C894.405 861.29 894.545 861.99 894.825 862.41C895.105 862.83 895.642 863.087 896.435 863.18L898.185 863.39C898.699 863.483 898.955 863.74 898.955 864.16C898.955 864.72 898.605 865 897.905 865H886.215ZM901.801 865C901.101 865 900.751 864.743 900.751 864.23C900.751 863.81 901.055 863.53 901.661 863.39L902.501 863.25C903.481 863.063 904.111 862.783 904.391 862.41C904.718 861.99 904.881 861.29 904.881 860.31V836.79C904.881 835.95 904.741 835.39 904.461 835.11C904.228 834.783 903.785 834.573 903.131 834.48L901.661 834.27C901.055 834.223 900.751 833.967 900.751 833.5C900.751 833.127 901.125 832.87 901.871 832.73C903.318 832.497 904.415 832.123 905.161 831.61C905.955 831.097 906.771 830.467 907.611 829.72C908.031 829.3 908.381 829.09 908.661 829.09C909.081 829.09 909.291 829.37 909.291 829.93V833.08C909.291 833.5 909.431 833.78 909.711 833.92C910.038 834.013 910.388 833.873 910.761 833.5C912.628 831.727 914.261 830.513 915.661 829.86C917.108 829.207 918.625 828.88 920.211 828.88C922.311 828.88 923.991 829.627 925.251 831.12C926.511 832.567 927.141 834.713 927.141 837.56V860.31C927.141 861.29 927.281 861.99 927.561 862.41C927.888 862.783 928.541 863.04 929.521 863.18L931.061 863.39C931.575 863.483 931.831 863.763 931.831 864.23C931.831 864.743 931.551 865 930.991 865H919.231C918.578 865 918.251 864.743 918.251 864.23C918.251 863.763 918.508 863.483 919.021 863.39L920.001 863.25C920.981 863.11 921.611 862.83 921.891 862.41C922.218 861.99 922.381 861.29 922.381 860.31V838.33C922.381 836.043 921.961 834.433 921.121 833.5C920.281 832.567 919.091 832.1 917.551 832.1C916.058 832.1 914.705 832.543 913.491 833.43C912.325 834.27 911.391 835.413 910.691 836.86C909.991 838.26 909.641 839.823 909.641 841.55V860.31C909.641 861.29 909.781 861.99 910.061 862.41C910.388 862.83 911.041 863.087 912.021 863.18L913.911 863.39C914.425 863.483 914.681 863.74 914.681 864.16C914.681 864.72 914.331 865 913.631 865H901.801ZM946.022 865.63C943.782 865.63 941.775 864.883 940.002 863.39C938.229 861.897 936.805 859.797 935.732 857.09C934.705 854.337 934.192 851.163 934.192 847.57C934.192 843.883 934.729 840.64 935.802 837.84C936.875 835.04 938.345 832.847 940.212 831.26C942.079 829.673 944.155 828.88 946.442 828.88C949.195 828.88 951.412 830.023 953.092 832.31C954.819 834.55 955.682 838.213 955.682 843.3C955.682 844.84 955.099 845.61 953.932 845.61H940.632C939.699 845.61 939.232 846.147 939.232 847.22C939.232 852.167 939.955 855.877 941.402 858.35C942.849 860.823 944.692 862.06 946.932 862.06C948.705 862.06 950.152 861.43 951.272 860.17C952.392 858.91 953.302 856.787 954.002 853.8C954.142 853.287 954.445 853.03 954.912 853.03C955.472 853.03 955.682 853.497 955.542 854.43C954.795 858.583 953.605 861.5 951.972 863.18C950.339 864.813 948.355 865.63 946.022 865.63ZM940.422 843.86H947.492C949.732 843.86 950.852 842.693 950.852 840.36C950.852 837.327 950.479 834.947 949.732 833.22C948.985 831.493 947.865 830.63 946.372 830.63C944.552 830.63 943.012 831.68 941.752 833.78C940.539 835.88 939.745 838.867 939.372 842.74C939.279 843.487 939.629 843.86 940.422 843.86Z" fill="#059669"/>
<path fill-rule="evenodd" clip-rule="evenodd" d="M613.667 366C475.872 366 389.795 410.167 355.333 498.533C407 454.367 467.295 437.8 536.167 448.833C575.485 455.133 603.592 473.433 634.643 493.667C685.328 526.633 743.97 564.8 872 564.8C1009.79 564.8 1095.87 520.633 1130.33 432.267C1078.67 476.433 1018.42 493 949.5 481.967C910.182 475.667 882.075 457.367 850.972 437.133C800.338 404.133 741.748 366 613.667 366ZM355.333 564.8C217.538 564.8 131.462 608.967 97 697.333C148.667 653.133 208.962 636.6 277.833 647.633C317.152 653.933 345.258 672.233 376.362 692.467C426.995 725.433 485.637 763.6 613.718 763.6C751.513 763.6 837.59 719.433 872.052 631.067C820.385 675.233 760.09 691.8 691.218 680.767C651.9 674.467 623.793 656.167 592.742 635.933C542.727 605.51 483.885 566.641 355.333 564.8Z" fill="#047857"/>
</svg>
