<svg width="500" height="500" viewBox="0 0 500 500" fill="none" xmlns="http://www.w3.org/2000/svg">
<path d="M250 0C388.071 0 500 111.929 500 250C500 388.071 388.071 500 250 500C111.929 500 0 388.071 0 250C0 111.929 111.929 0 250 0Z" fill="#727272"/>
<path d="M74.1429 241.571H99.8571V258.714H74.1429V293H57V207.286H108.429V224.429H74.1429V241.571ZM117 207.286H134.143V293H117V207.286ZM142.781 233H151.353V224.429H194.21V233H202.781V284.429H194.21V293H151.353V284.429H142.781V233ZM185.638 241.571H159.924V275.857H185.638V241.571ZM219.946 275.857H211.375V224.429H228.518V267.286H237.089V275.857H245.661V224.429H262.804V275.857H271.375V267.286H279.946V224.429H297.089V275.857H288.518V284.429H279.946V293H262.804V284.429H245.661V293H228.518V284.429H219.946V275.857ZM305.594 207.286H322.737V224.429H305.594V207.286ZM305.594 233H322.737V293H305.594V233ZM331.375 233H339.946V215.857H348.518V207.286H374.232V224.429H357.089V233H374.232V250.143H357.089V293H339.946V250.143H331.375V233ZM382.781 293H391.353V284.429H399.924V275.857H391.353V267.286H382.781V224.429H399.924V258.714H408.496V267.286H417.067V224.429H434.21V275.857H425.638V284.429H417.067V293H408.496V301.571H399.924V310.143H382.781V293Z" fill="white"/>
<path d="M77.75 311H74V307.25H85.25V311H81.5V326H77.75V311ZM90.875 312.875H92.75V311H98.375V312.875H100.25V326H96.5V314.75H90.875V326H87.125V307.25H90.875V312.875ZM102.13 312.875H104.005V311H113.38V312.875H115.255V320.375H105.88V322.25H115.255V324.125H113.38V326H104.005V324.125H102.13V312.875ZM105.88 316.625H111.505V314.75H105.88V316.625ZM132.12 326H126.495V324.125H124.62V311H128.37V322.25H133.995V311H137.745V326H133.995V324.125H132.12V326ZM139.625 307.25H143.375V326H139.625V307.25ZM145.265 312.875H147.14V309.125H149.015V307.25H150.89V312.875H154.64V316.625H150.89V322.25H154.64V326H149.015V324.125H147.14V316.625H145.265V312.875ZM156.51 307.25H160.26V311H156.51V307.25ZM156.51 312.875H160.26V326H156.51V312.875ZM165.899 312.875H167.774V311H171.524V312.875H175.274V311H179.024V312.875H180.899V326H177.149V314.75H173.399V326H169.649V314.75H165.899V326H162.149V311H165.899V312.875ZM184.635 324.125H182.76V318.5H184.635V316.625H192.135V314.75H182.76V312.875H184.635V311H194.01V312.875H195.885V326H192.135V324.125H190.26V326H184.635V324.125ZM186.51 322.25H192.135V320.375H186.51V322.25ZM197.765 312.875H199.64V309.125H201.515V307.25H203.39V312.875H207.14V316.625H203.39V322.25H207.14V326H201.515V324.125H199.64V316.625H197.765V312.875ZM209.01 312.875H210.885V311H220.26V312.875H222.135V320.375H212.76V322.25H222.135V324.125H220.26V326H210.885V324.125H209.01V312.875ZM212.76 316.625H218.385V314.75H212.76V316.625ZM235.25 322.25H240.875V314.75H235.25V322.25ZM235.25 312.875H237.125V311H242.75V312.875H244.625V324.125H242.75V326H231.5V307.25H235.25V312.875ZM254.005 326H248.38V324.125H246.505V311H250.255V322.25H255.88V311H259.63V326H255.88V324.125H254.005V326ZM263.385 324.125H261.51V322.25H269.01V320.375H263.385V318.5H261.51V312.875H263.385V311H270.885V312.875H272.76V314.75H265.26V316.625H270.885V318.5H272.76V324.125H270.885V326H263.385V324.125ZM274.635 307.25H278.385V311H274.635V307.25ZM274.635 312.875H278.385V326H274.635V312.875ZM284.024 312.875H285.899V311H291.524V312.875H293.399V326H289.649V314.75H284.024V326H280.274V311H284.024V312.875ZM295.279 312.875H297.154V311H306.529V312.875H308.404V320.375H299.029V322.25H308.404V324.125H306.529V326H297.154V324.125H295.279V312.875ZM299.029 316.625H304.654V314.75H299.029V316.625ZM312.159 324.125H310.284V322.25H317.784V320.375H312.159V318.5H310.284V312.875H312.159V311H319.659V312.875H321.534V314.75H314.034V316.625H319.659V318.5H321.534V324.125H319.659V326H312.159V324.125ZM325.284 324.125H323.409V322.25H330.909V320.375H325.284V318.5H323.409V312.875H325.284V311H332.784V312.875H334.659V314.75H327.159V316.625H332.784V318.5H334.659V324.125H332.784V326H325.284V324.125ZM344.02 312.875H345.895V311H355.27V312.875H357.145V320.375H347.77V322.25H357.145V324.125H355.27V326H345.895V324.125H344.02V312.875ZM347.77 316.625H353.395V314.75H347.77V316.625ZM362.774 312.875H364.649V311H370.274V312.875H372.149V326H368.399V314.75H362.774V326H359.024V311H362.774V312.875ZM374.029 326H383.404V322.25H381.529V324.125H375.904V322.25H374.029V312.875H375.904V311H387.154V327.875H385.279V329.75H375.904V327.875H374.029V326ZM377.779 320.375H383.404V314.75H377.779V320.375ZM389.034 307.25H392.784V311H389.034V307.25ZM389.034 312.875H392.784V326H389.034V312.875ZM398.424 312.875H400.299V311H405.924V312.875H407.799V326H404.049V314.75H398.424V326H394.674V311H398.424V312.875ZM409.679 312.875H411.554V311H420.929V312.875H422.804V320.375H413.429V322.25H422.804V324.125H420.929V326H411.554V324.125H409.679V312.875ZM413.429 316.625H419.054V314.75H413.429V316.625Z" fill="white"/>
</svg>
